<?xml version="1.0" encoding="UTF-8" standalone="no"?>
<svg
   version="1.1"
   width="1339.9551pt"
   height="472.51001pt"
   id="svg2130"
   viewBox="0 0 1339.9551 472.51001"
   sodipodi:docname="Carpa logos OK.cdr"
   xmlns:inkscape="http://www.inkscape.org/namespaces/inkscape"
   xmlns:sodipodi="http://sodipodi.sourceforge.net/DTD/sodipodi-0.dtd"
   xmlns="http://www.w3.org/2000/svg"
   xmlns:svg="http://www.w3.org/2000/svg">
  <defs
     id="defs2134" />
  <sodipodi:namedview
     id="namedview2132"
     pagecolor="#ffffff"
     bordercolor="#000000"
     borderopacity="0.25"
     inkscape:showpageshadow="2"
     inkscape:pageopacity="0.0"
     inkscape:pagecheckerboard="0"
     inkscape:deskcolor="#d1d1d1"
     showgrid="false"
     inkscape:document-units="pt" />
  <g
     id="Layer1028"
     inkscape:export-filename="../f69d16f4/Layer1028.svg"
     inkscape:export-xdpi="96"
     inkscape:export-ydpi="96"
     transform="translate(-6121.7413,-3379.533)">
    <g
       id="Layer1029">
      <g
         id="Layer1030">
        <path
           d="m 6689.6497,3379.533 c 67.8143,0.012 135.6163,0.012 203.4184,0.012 0.084,67.8385 0.048,135.6885 0.024,203.5389 -67.8143,0.06 -135.6282,0.036 -203.4425,0.012 0.012,-67.85 0.012,-135.7004 0,-203.5627 z m 3.1459,3.3259 v 0 c 65.5448,65.7491 131.2578,131.3423 196.9707,196.9232 -0.012,-65.665 0.072,-131.3181 -0.036,-196.9831 -65.6412,0.048 -131.2939,-0.06 -196.9347,0.06 z"
           style="fill:#000000;fill-rule:evenodd"
           id="path1943" />
      </g>
      <path
         d="m 6259.7594,3614.0372 c 7.8764,-2.8936 15.3804,-6.8318 23.5573,-8.861 0.552,31.6379 -0.012,63.2996 0.2879,94.9494 0.1681,3.1216 0.3843,7.0238 3.4821,8.7527 2.3532,1.0568 5.0188,1.0806 7.5282,1.5129 0,0.6364 -0.012,1.9213 -0.012,2.5577 -11.1424,-0.1923 -22.2966,0.2641 -33.4148,-0.1804 -0.1562,-0.4802 -0.4683,-1.4526 -0.6246,-1.9328 3.1217,-1.1769 7.6123,-0.8407 9.1731,-4.3946 1.2849,-3.1459 1.1167,-6.6399 1.2249,-9.9535 -0.096,-23.2091 0.036,-46.4302 -0.06,-69.6389 -0.3121,-3.3739 0.2161,-7.3482 -2.1251,-10.122 -2.4135,-1.8369 -5.559,-0.192 -8.2365,-0.084 -0.1923,-0.6483 -0.5765,-1.9573 -0.7804,-2.6057 z"
         style="fill:#000000;fill-rule:evenodd"
         id="path1946" />
      <path
         d="m 6305.6851,3647.5239 c 5.7274,-2.1854 11.2744,-5.0069 17.3738,-6.0756 0.1083,4.899 0.084,9.8095 0.192,14.7204 6.712,-6.5677 13.892,-14.7082 24.1937,-14.3239 8.4768,-0.3723 15.0806,6.4115 17.2299,14.1439 6.4234,-7.1562 14.36,-14.9124 24.806,-14.1201 9.3651,-0.1079 16.1612,8.6449 16.8095,17.4099 1.0323,13.952 -0.024,27.9638 0.5402,41.9277 0.2403,2.6414 0.4802,5.8713 3.0257,7.3842 2.1854,1.2365 4.7907,1.2967 7.2161,1.8249 -0.012,0.6365 -0.024,1.9091 -0.036,2.5455 -9.5934,-0.072 -19.1746,-0.048 -28.768,0.024 -2.1854,-0.1919 -5.139,0.4684 -6.0998,-2.281 4.1666,-0.8526 10.6621,-0.6844 11.5627,-6.1235 0.8764,-12.223 0.096,-24.542 0.3843,-36.8129 0.024,-5.7751 -0.3121,-13.6157 -6.724,-15.993 -8.6207,-3.0496 -16.6053,3.0617 -22.5127,8.6571 0.2644,13.2314 -0.06,26.4628 0.1562,39.6943 0.2403,2.4015 0.012,5.1627 1.5608,7.1919 2.3893,2.7616 6.3877,2.4376 9.6656,3.0499 -0.012,0.6602 -0.048,1.957 -0.072,2.6053 -11.8027,-0.4322 -23.6894,0.6365 -35.444,-0.5163 0.8165,-3.3497 5.0548,-2.1612 7.5282,-3.3619 4.2264,-1.3206 4.1903,-6.4956 4.2264,-10.1217 -0.1562,-11.6226 0.1801,-23.2448 -0.1562,-34.8674 -0.012,-5.4273 -2.7133,-11.6226 -8.4526,-12.9674 -8.1166,-1.8011 -15.2847,3.83 -20.7957,9.053 0.1559,12.9193 0,25.8386 0.06,38.7457 0.2042,3.494 -0.036,8.0326 3.4699,10.0499 2.3896,0.9965 5.0549,0.9846 7.5884,1.3566 0,0.6484 0,1.9693 0,2.6295 -9.5815,-0.084 -19.1627,-0.06 -28.7442,0.012 -2.2572,-0.06 -5.0549,0.3605 -6.1236,-2.2449 3.3739,-0.9969 8.2249,-0.4683 10.0138,-4.2387 1.5969,-3.8902 1.1888,-8.2365 1.3209,-12.3428 -0.1681,-11.2145 0.2161,-22.4528 -0.2645,-33.6551 -0.3481,-2.7973 -0.1558,-6.3873 -2.8215,-8.1286 -2.9896,-0.408 -6.0034,0.084 -8.993,0.1083 1.2368,-2.9658 4.3827,-3.8664 7.084,-4.9589 z"
         style="fill:#000000;fill-rule:evenodd"
         id="path1948" />
      <g
         id="Layer1031">
        <path
           d="m 6195.7032,3654.0317 c 3.3617,-7.048 11.0223,-11.1185 18.5743,-11.8629 7.1082,-0.6963 14.7803,-0.4802 21.1799,3.0376 4.6107,2.4975 7.084,7.7205 7.1681,12.8353 0.7444,13.6398 -0.132,27.3154 0.4564,40.9672 -0.06,2.5094 1.0446,6.7358 4.4426,5.5592 2.8576,-1.5251 5.1267,-3.9024 7.6841,-5.8594 -0.1079,5.7873 -4.7305,9.8095 -9.0292,12.9673 -3.4579,2.4376 -8.5485,3.8783 -12.2947,1.2487 -3.0499,-2.089 -2.9658,-6.1715 -3.8181,-9.3892 -6.7838,4.4426 -13.0874,11.3704 -21.9004,10.8299 -8.9693,0.4204 -16.3532,-7.9243 -16.1973,-16.6413 -0.7324,-6.9159 3.4461,-13.1352 8.9213,-16.9175 8.9688,-6.4475 19.6671,-9.6894 29.7407,-13.9039 -0.3842,-4.5263 -0.2403,-9.2211 -1.8253,-13.5316 -2.6533,-7.5643 -13.9877,-9.1132 -19.3308,-3.6499 -3.2058,3.1577 -1.5847,8.0445 -2.4134,12.0068 -0.468,4.7785 -7.2039,6.3996 -10.3858,3.2296 -2.8215,-2.8453 -2.4852,-7.504 -0.9724,-10.9259 z m 11.7305,30.9412 v 0 c -5.2349,6.4118 -2.7017,17.854 5.5712,20.2674 6.6998,1.3209 12.3788,-3.59 17.4579,-7.2399 -0.1202,-8.7051 0,-17.4099 -0.096,-26.1147 -8.0326,3.4699 -17.2418,5.9793 -22.9331,13.0872 z"
           style="fill:#000000;fill-rule:evenodd"
           id="path1950" />
      </g>
      <g
         id="Layer1032">
        <path
           d="m 6436.8592,3644.5223 c 8.0925,-3.4341 17.4936,-3.446 25.8744,-1.0568 6.0637,1.6089 10.8541,7.1082 11.0103,13.4956 0.9605,13.892 -0.036,27.8559 0.5282,41.7837 0.2522,2.2211 0.3002,5.3189 2.9539,6.0633 3.734,-0.4561 6.0753,-4.0342 9.101,-5.9432 -0.048,5.6311 -4.5144,9.5213 -8.6568,12.6191 -3.4219,2.4853 -8.405,4.0461 -12.271,1.645 -3.2779,-2.0772 -3.3259,-6.3758 -4.1785,-9.7374 -6.7596,4.8744 -13.4955,11.8026 -22.5607,10.95 -8.6687,0.024 -15.5608,-8.1285 -15.4406,-16.5454 -0.7924,-7.036 3.5662,-13.4115 9.1853,-17.2057 8.8488,-6.1235 19.1508,-9.6656 29.1642,-13.3515 -0.084,-5.6672 0.3482,-11.9946 -3.1935,-16.8096 -4.7067,-5.4629 -15.3089,-5.4748 -19.0187,1.1528 -1.3931,3.7101 -0.2042,7.9005 -1.441,11.6706 -2.1851,4.8146 -10.2779,4.2625 -11.6587,-0.9006 -2.197,-7.6963 4.0345,-14.7923 10.6022,-17.8299 z m 2.0411,40.1385 v 0 c -5.6791,6.4836 -2.9297,18.7427 5.9193,20.7116 6.5075,0.8287 11.9347,-3.7939 16.8695,-7.372 -0.1079,-8.717 -0.012,-17.4218 -0.072,-26.1388 -7.9247,3.446 -16.9539,5.9193 -22.717,12.7992 z"
           style="fill:#000000;fill-rule:evenodd"
           id="path1953" />
      </g>
      <path
         d="m 6514.8792,3643.2133 c 10.2057,-3.0617 22.8487,-1.3086 29.7646,7.4802 2.6057,3.1221 4.3704,8.0806 1.8253,11.7428 -2.99,3.6261 -9.3055,3.2176 -12.3911,-0.084 -2.6894,-4.1785 -1.0445,-10.59 -5.6433,-13.6395 -5.6672,-3.35 -13.6157,-1.729 -17.962,3.0975 -5.1028,5.5113 -6.8679,13.3036 -6.7477,20.6398 0.048,9.4373 3.0617,19.3309 9.9654,26.0187 6.4237,6.1474 17.1696,6.1835 24.1097,0.8884 4.4065,-2.9655 6.5919,-7.9486 9.0533,-12.4391 0.324,-2.0772 3.6138,-0.7083 2.4372,1.1166 -2.1854,12.3432 -11.2744,24.2659 -24.0736,26.6072 -10.0376,2.0772 -20.3754,-2.9297 -26.3308,-10.9742 -7.18,-9.2211 -8.4168,-21.6725 -6.904,-32.9227 1.7889,-12.4391 10.8061,-23.7373 22.897,-27.5316 z"
         style="fill:#000000;fill-rule:evenodd"
         id="path1956" />
      <g
         id="Layer1033">
        <path
           d="m 6571.6832,3649.3849 c 7.6603,-7.1201 19.1508,-9.2572 29.0805,-6.4238 7.276,2.1374 13.3032,7.9006 15.9689,14.9727 1.5247,3.7942 1.7769,7.9124 2.1853,11.9466 -15.993,0.084 -31.986,-0.06 -47.979,0.072 0.2399,9.4732 2.4134,19.679 9.7734,26.2828 6.7597,6.8679 18.4184,8.7289 26.547,3.1938 4.6464,-2.9535 6.5316,-8.3447 9.3531,-12.7873 0.4925,0.1202 1.489,0.3724 1.9812,0.5044 -1.3087,13.8557 -12.7512,27.9757 -27.5193,27.9155 -11.0345,0.5163 -21.3961,-6.4353 -26.4271,-16.041 -4.5267,-8.6326 -5.0069,-18.7904 -3.7582,-28.2997 1.0926,-8.0445 4.6107,-15.9332 10.7942,-21.3362 z m 7.0361,1.0445 v 0 c -4.9109,3.4219 -6.7478,9.3773 -7.8768,14.9604 10.7582,0.2162 21.5163,0.1804 32.2744,0.024 -0.6123,-4.9708 -1.1766,-10.5661 -5.2108,-14.0721 -5.0191,-5.0906 -13.712,-5.4629 -19.1868,-0.9125 z"
           style="fill:#000000;fill-rule:evenodd"
           id="path1958" />
      </g>
      <path
         d="m 6629.2315,3648.0643 c 6.2077,-2.3535 12.175,-5.4391 18.7666,-6.5918 0.06,4.8387 0.048,9.6775 0,14.5162 4.9949,-4.995 9.9657,-10.542 16.7976,-12.9915 6.0756,-2.233 13.7239,-1.3328 18.2744,3.59 4.3704,4.719 5.727,11.3585 5.8472,17.6022 0.228,12.0065 -0.144,24.0134 0.132,36.0083 0.2284,2.9536 0.3724,6.4956 2.9539,8.4407 2.4611,1.0687 5.1628,1.3566 7.6963,2.2334 -0.084,0.4802 -0.2641,1.4287 -0.3481,1.909 -11.4906,0.096 -23.0533,0.6123 -34.5077,-0.2883 1.1408,-3.8902 6.3757,-1.7889 8.9692,-4.0702 2.7973,-2.3175 2.5693,-6.2438 2.6775,-9.5094 -0.072,-10.3858 0.012,-20.7719 -0.048,-31.1457 -0.2161,-4.6104 -0.3485,-9.6775 -3.2418,-13.5194 -2.7255,-3.3259 -7.5404,-3.5063 -11.3945,-2.5216 -5.5232,1.3209 -9.8096,5.271 -13.7719,9.1013 0.036,12.7032 -0.024,25.3941 0,38.0854 0.1443,3.3977 -0.06,7.6722 3.1458,9.8456 2.4495,1.2968 5.3792,1.1885 8.0806,1.6449 0,0.6361 0.012,1.8849 0.012,2.5094 -11.4065,0.036 -22.8007,-0.012 -34.2072,0.036 -0.012,-0.6245 -0.048,-1.8733 -0.06,-2.4856 3.782,-0.4683 9.1609,-0.7804 9.7493,-5.6191 1.633,-9.8695 0.4085,-19.9673 0.7805,-29.9327 -0.2642,-6.7839 0.6483,-13.7719 -1.2246,-20.3877 -1.633,-4.0583 -6.676,-1.8729 -9.8936,-1.621 -1.1406,-3.3379 2.6894,-3.734 4.8145,-4.8385 z"
         style="fill:#000000;fill-rule:evenodd"
         id="path1961" />
      <g
         id="Layer1034">
        <path
           d="m 6717.7697,3648.9047 c 7.3002,-6.4837 17.8541,-8.5009 27.2314,-6.3036 8.2844,1.9212 15.2003,8.5369 17.722,16.6175 1.1405,3.4457 1.3685,7.0837 1.7409,10.6737 -15.9811,0.024 -31.9619,0 -47.9311,0.012 0.132,9.4372 2.3413,19.583 9.5815,26.1987 6.9037,7.1439 19.0905,8.9689 27.2433,2.9297 4.3704,-3.0379 6.1834,-8.2126 8.7888,-12.6072 0.4445,0.1801 1.3328,0.5524 1.7892,0.7324 0.072,7.1079 -3.9623,13.5916 -8.3446,18.9105 -5.3793,6.5678 -14.1443,9.8937 -22.537,8.8491 -10.1097,-0.8042 -18.9105,-7.8763 -23.3051,-16.7853 -4.0583,-8.2848 -4.4905,-17.866 -3.3738,-26.8832 1.0207,-8.4648 4.7788,-16.7976 11.3945,-22.3446 z m 7.1198,1.0687 v 0 c -5.2829,3.3977 -7.4441,9.6172 -8.4407,15.5247 10.722,0.036 21.4563,0.024 32.1784,0 -0.5766,-4.7666 -1.0088,-10.0979 -4.6587,-13.6399 -4.767,-5.2829 -13.3877,-6.1834 -19.079,-1.8848 z"
           style="fill:#000000;fill-rule:evenodd"
           id="path1963" />
      </g>
      <path
         d="m 6785.6439,3644.7143 c 7.1436,-4.4065 15.8725,-2.8338 23.461,-0.5885 3.3136,1.4411 6.1113,-1.2365 8.8848,-2.6653 0.072,8.0445 0.036,16.0771 0.036,24.1216 -0.6722,-0.1562 -2.005,-0.4683 -2.6775,-0.6245 -1.8131,-5.9793 -3.7463,-12.8591 -9.4852,-16.2571 -5.6315,-3.2058 -13.7958,-3.5298 -18.5501,1.4049 -3.9743,4.0104 -2.2096,10.9021 1.8968,14.1439 8.5247,6.772 19.9791,8.8249 28.0236,16.3293 4.7187,4.2745 6.9758,10.9742 5.7152,17.2295 -1.2246,8.441 -8.8368,14.5523 -16.7496,16.5216 -7.2399,1.825 -14.6238,-0.132 -21.6837,-1.7773 -2.8457,-1.0684 -5.451,0.8288 -7.9846,1.8491 -0.2399,-8.3807 -0.072,-16.7493 -0.144,-25.13 0.6362,0.072 1.921,0.2161 2.5693,0.2883 1.5251,6.4234 4.2023,13.0391 9.7735,17.0014 5.5348,4.2503 14.3478,5.8591 19.967,0.9486 4.6828,-3.9624 4.1543,-11.7547 -0.144,-15.8011 -8.3689,-7.8164 -20.5554,-10.0376 -28.5397,-18.3581 -7.2641,-8.5731 -4.1543,-23.2813 5.6311,-28.6363 z"
         style="fill:#000000;fill-rule:evenodd"
         id="path1966" />
      <path
         d="m 6121.7412,3743.2417 c 446.6522,0.012 893.3037,0 1339.9555,0.012 v 7.6003 c -446.6518,-0.012 -893.3033,0 -1339.9555,-0.012 z"
         style="fill:#000000;fill-rule:evenodd"
         id="path1968" />
    </g>
    <g
       id="Layer1035">
      <path
         d="m 7354.8845,3614.7458 c 8.0445,-3.3861 15.9212,-7.7205 24.578,-9.2932 0.144,31.1695 0.012,62.3507 0.06,93.5202 0.1682,3.0618 -0.024,6.6518 2.3416,8.9931 2.3052,2.2694 5.8472,1.8851 8.825,2.4015 -0.024,0.6364 -0.06,1.9209 -0.084,2.5573 -11.0702,-0.1439 -22.1765,0.2761 -33.2229,-0.18 -0.3362,-0.5282 -0.9846,-1.585 -1.3205,-2.1013 3.3977,-0.7924 8.2483,-0.3962 9.7612,-4.3824 1.6211,-4.6226 0.9965,-9.6655 1.1527,-14.4682 -0.084,-21.6122 0.1202,-43.2363 -0.1078,-64.8482 -0.2883,-3.3619 0.2518,-7.228 -1.9332,-10.0736 -2.8576,-2.7735 -7.5044,1.4526 -10.0499,-2.1252 z"
         style="fill:#000000;fill-rule:evenodd"
         id="path1971" />
      <g
         id="Layer1036">
        <path
           d="m 6828.2315,3614.1693 c 8.0445,-2.7974 15.5608,-7.228 24.0014,-8.777 0.1682,16.7497 0.096,33.4986 0.036,50.236 4.995,-6.4115 11.3704,-13.0031 19.9554,-13.6756 10.2299,-1.0687 19.631,5.8714 24.1216,14.6602 4.3343,8.5969 4.7788,18.6947 3.2779,28.0598 -2.7255,16.3895 -17.8061,30.4014 -34.6878,30.3653 -9.089,0.096 -17.6256,-3.8062 -25.082,-8.7048 0.012,-26.0789 0.06,-52.1575 -0.024,-78.2358 -0.2883,-3.7224 0.2879,-7.9366 -1.9812,-11.1424 -2.4015,-2.3412 -5.8833,-0.5643 -8.6449,-0.2161 -0.2403,-0.6483 -0.7205,-1.9213 -0.9727,-2.5696 z m 24.0498,46.5741 v 0 c 0.1079,13.7596 -0.012,27.5315 0.06,41.2912 5.355,4.8268 12.6671,9.0172 20.0874,6.8437 7.5762,-2.8215 12.3908,-10.4698 13.8798,-18.1542 1.4768,-7.9125 1.5608,-16.3051 -0.9966,-24.0015 -2.6414,-7.4921 -9.5093,-14.4321 -17.9142,-14.1197 -6.0634,0.18 -10.9862,4.1063 -15.1163,8.1405 z"
           style="fill:#000000;fill-rule:evenodd"
           id="path1973" />
      </g>
      <path
         d="m 7257.9901,3606.8453 c 4.8745,-3.1819 12.1508,0.9125 11.6944,6.7958 0.1082,5.6072 -6.6998,9.5454 -11.4783,6.5435 -5.0668,-2.5693 -5.223,-10.6257 -0.2161,-13.3393 z"
         style="fill:#000000;fill-rule:evenodd"
         id="path1976" />
      <path
         d="m 6975.6627,3650.1534 c 7.6844,-3.0499 15.1527,-7.1439 23.3773,-8.585 0.1201,4.8507 0.048,9.7017 0.1201,14.5524 4.8146,-5.139 9.8453,-10.542 16.6053,-13.0633 6.0034,-2.2334 13.5796,-1.453 18.1781,3.3259 4.4667,4.6825 5.9193,11.3581 6.0395,17.6498 0.144,11.6226 -0.072,23.2452 0.084,34.8678 0.2161,3.0134 0.072,6.4234 2.1013,8.909 2.1009,2.4253 5.6552,2.0291 8.5485,2.5812 -0.012,0.6364 -0.036,1.8971 -0.048,2.5335 -11.3942,0.012 -22.7768,-0.012 -34.1591,0.012 -0.024,-0.6484 -0.084,-1.9329 -0.1079,-2.5813 2.9896,-0.4683 6.6276,0.036 8.945,-2.3174 2.4012,-2.3892 2.149,-6.0395 2.245,-9.1493 -0.048,-10.3976 0.012,-20.7834 -0.024,-31.1695 -0.2281,-4.7186 -0.3724,-9.9896 -3.5301,-13.8077 -2.9417,-3.1458 -7.7563,-3.1577 -11.6226,-2.0894 -5.2829,1.4292 -9.3893,5.2353 -13.2434,8.9213 -0.1082,12.7151 -0.036,25.4421 -0.048,38.1576 0.1801,3.0376 -0.1681,6.6157 2.1252,9.005 2.3052,2.4494 6.0153,1.945 9.0652,2.4253 -0.048,0.6603 -0.1443,1.9692 -0.1801,2.6295 -11.1784,-0.2522 -22.3807,0.324 -33.5349,-0.2641 l -1.0568,-2.1251 c 3.3259,-0.7206 8.1765,-0.1923 9.7615,-4.0223 1.9213,-5.1028 1.1647,-10.6982 1.3329,-16.0291 -0.1202,-10.3861 0.228,-20.7838 -0.2642,-31.1576 -0.2882,-2.4373 -0.3362,-5.6311 -2.7976,-6.9401 -2.7136,-0.7202 -5.511,0.2522 -8.2607,0.1321 0.084,-0.6001 0.2522,-1.8008 0.3482,-2.4012 z"
         style="fill:#000000;fill-rule:evenodd"
         id="path1978" />
      <g
         id="Layer1037">
        <path
           d="m 6913.1674,3665.2217 c 2.7017,-10.4457 10.9504,-19.5469 21.4921,-22.3446 8.6932,-2.245 18.8386,-1.2726 25.8267,4.7907 6.6399,5.3071 9.2932,13.952 9.4975,22.1765 -15.9692,0.084 -31.9381,0.012 -47.9073,0.036 0.084,9.3892 2.2933,19.4871 9.4495,26.1147 6.856,7.2042 19.0306,9.1132 27.2432,3.17 4.5866,-3.1578 6.4837,-8.5608 9.1973,-13.1474 0.4322,0.4922 1.3086,1.4887 1.7409,1.9931 -1.0806,8.1524 -5.6069,15.6568 -11.6706,21.1078 -6.6276,5.8952 -16.365,7.228 -24.6978,4.7547 -10.1097,-3.0737 -17.866,-12.0307 -20.4114,-22.1646 -2.1973,-8.6449 -1.9931,-17.8779 0.2399,-26.487 z m 18.5385,-16.0648 v 0 c -6.0153,3.2057 -8.813,9.9174 -9.7136,16.365 10.7221,0.036 21.4441,0.012 32.1784,0.012 -0.5524,-4.2863 -0.7205,-8.9692 -3.5781,-12.4632 -4.2142,-5.739 -12.7631,-7.7202 -18.8867,-3.914 z"
           style="fill:#000000;fill-rule:evenodd"
           id="path1980" />
      </g>
      <g
         id="Layer1038">
        <path
           d="m 7071.7529,3643.9699 c 7.9485,-2.8095 16.9297,-2.7857 24.9861,-0.3362 5.7635,1.6929 10.2299,7.0119 10.494,13.0755 0.9125,14.0959 -0.1202,28.2398 0.5762,42.3358 0.132,2.2333 0.4683,5.6191 3.3861,5.7631 3.5298,-0.7202 5.7271,-4.0342 8.5006,-6.0994 0.4084,5.6192 -4.2745,9.3654 -8.2004,12.5351 -3.6022,2.7616 -9.1373,4.4664 -13.0874,1.489 -2.9179,-2.2453 -2.8576,-6.2556 -3.5182,-9.5216 -7.2039,5.4153 -14.8403,12.8713 -24.6978,10.9143 -13.4357,-1.7531 -17.9262,-20.9039 -8.5728,-29.7527 9.1612,-8.9692 21.9243,-12.5473 33.5228,-17.2298 -0.144,-5.5351 0.2763,-11.6587 -3.0016,-16.4495 -4.3946,-5.4387 -14.264,-5.8472 -18.6225,-0.1681 -3.1459,4.0464 0.3121,9.9416 -2.9298,13.952 -3.1336,3.8541 -10.3017,2.1132 -11.0103,-2.9298 -1.5486,-8.0203 5.223,-14.9001 12.175,-17.5777 z m 3.2058,38.0252 v 0 c -3.59,2.9179 -5.9432,7.4806 -5.4749,12.1631 0.18,5.5593 4.5386,11.1424 10.3259,11.4303 5.8832,-0.2039 10.6498,-4.1301 15.2483,-7.36 0.06,-8.8011 0.048,-17.59 0,-26.3911 -6.8679,2.99 -14.2879,5.2591 -20.0993,10.1577 z"
           style="fill:#000000;fill-rule:evenodd"
           id="path1983" />
      </g>
      <path
         d="m 7121.3531,3650.2974 c 7.7443,-3.1939 15.3085,-7.2039 23.593,-8.7409 0.072,4.9589 0.036,9.9175 0.06,14.8883 6.5916,-6.5436 13.5915,-14.6602 23.7493,-14.5643 8.6571,-0.6361 15.849,6.1958 17.7822,14.2763 4.7305,-5.0667 9.5332,-10.6502 16.2932,-12.9914 6.1712,-2.1613 13.8077,-1.8611 18.8867,2.6775 4.7424,4.2744 6.6276,10.818 6.7597,17.0375 0.3961,12.415 0,24.8541 0.1919,37.2693 0.2042,2.5812 0.084,5.6069 2.0414,7.6123 2.1732,2.233 5.5229,2.101 8.3927,2.6653 -0.012,0.6245 -0.048,1.8732 -0.072,2.4974 -11.3704,0.012 -22.7408,-0.012 -34.0993,0.012 -0.036,-0.6362 -0.1079,-1.921 -0.144,-2.5574 3.4941,-0.4561 7.9486,-0.2522 10.0737,-3.6622 1.6449,-3.1336 1.0445,-6.8437 1.2368,-10.2537 -0.1681,-11.1424 0.276,-22.2966 -0.2403,-33.4267 -0.048,-4.8868 -2.4253,-10.446 -7.6241,-11.6345 -8.3808,-2.1613 -15.7531,3.6499 -21.4563,9.0168 0.3001,13.2556 0.012,26.5231 0.1562,39.7787 0.2161,2.5094 -0.096,5.511 1.861,7.4561 2.4495,2.4614 6.1835,2.2092 9.3773,2.7255 -0.012,0.6364 -0.048,1.909 -0.06,2.5454 -11.6584,0.012 -23.3051,0 -34.9634,0.012 -0.024,-0.6484 -0.06,-1.921 -0.084,-2.5693 3.1816,-0.5524 7.1198,-0.096 9.4491,-2.7977 2.3413,-2.6895 1.7052,-6.5197 1.9451,-9.8096 -0.096,-11.1781 0.2042,-22.3684 -0.1559,-33.5469 -0.096,-5.2948 -2.4975,-11.3343 -8.0206,-12.9673 -7.9724,-2.041 -15.681,3.2058 -20.904,8.7409 -0.9363,10.5181 -0.096,21.216 -0.3961,31.806 0.2161,4.995 -0.6123,10.3139 1.3808,15.0445 1.993,3.5539 6.5439,3.0379 10.0137,3.5059 -0.012,0.6484 -0.048,1.9332 -0.06,2.5815 -11.3826,0.012 -22.7768,0 -34.1595,0 -0.024,-0.6242 -0.06,-1.8971 -0.072,-2.5335 3.1098,-0.5521 7.2038,-0.2519 8.9689,-3.4699 1.8491,-3.5781 1.3808,-7.7562 1.5128,-11.6464 -0.1562,-11.6107 0.2281,-23.2452 -0.2399,-34.8559 -0.3002,-2.6533 -0.1562,-5.9792 -2.4614,-7.7923 -2.5816,-1.4407 -5.5835,0.012 -8.2729,0.2883 -0.06,-0.6484 -0.18,-1.9693 -0.2399,-2.6176 z"
         style="fill:#000000;fill-rule:evenodd"
         id="path1986" />
      <path
         d="m 7244.3863,3650.1534 c 7.9605,-2.7255 15.3808,-7.2522 23.7854,-8.5727 0.2402,19.0905 -0.012,38.1814 0.1201,57.26 0.1923,3.0257 0,6.4837 2.1013,8.957 2.0649,2.4495 5.6069,2.0292 8.4768,2.5935 -0.024,0.6364 -0.084,1.9093 -0.1083,2.5335 -9.4372,0.012 -18.8866,-0.024 -28.3239,0.036 -2.2452,-0.1681 -5.3189,0.7444 -5.9915,-2.3293 3.1939,-0.8645 7.6365,-0.144 9.6057,-3.4699 1.9329,-3.17 1.5248,-7.084 1.681,-10.638 -0.1443,-11.9949 0.2039,-24.0017 -0.2042,-35.9963 -0.3363,-2.8215 -0.096,-6.6158 -2.9777,-8.1888 -2.5094,-0.8523 -5.1631,0.1923 -7.6844,0.5044 -0.1202,-0.6722 -0.3601,-2.0173 -0.4803,-2.6895 z"
         style="fill:#000000;fill-rule:evenodd"
         id="path1988" />
      <g
         id="Layer1039">
        <path
           d="m 7298.2368,3650.6697 c 10.4337,-11.0222 30.4252,-12.4149 41.0992,-1.0568 5.2948,5.3313 7.1439,12.9673 7.4081,20.2556 -15.9689,0.036 -31.9381,-0.012 -47.895,0.024 0.072,9.4495 2.3531,19.6191 9.5934,26.2471 6.7239,6.9159 18.3462,8.8487 26.5231,3.4219 4.9225,-3.134 7.1439,-8.7531 9.7255,-13.7117 2.9896,2.4134 0.9244,6.1954 -0.012,9.137 -2.6775,6.5677 -7.0718,12.6913 -13.1354,16.5213 -10.2657,6.1834 -24.4817,4.0464 -32.8383,-4.4304 -7.2161,-6.6157 -10.3861,-16.5814 -10.4821,-26.1749 -0.3482,-10.7581 2.0533,-22.4406 10.0138,-30.2329 z m 9.6172,-1.1408 v 0 c -5.6549,3.3259 -8.2004,9.7857 -9.089,15.993 10.722,0.036 21.456,0.012 32.1902,0.012 -0.5643,-4.4905 -0.8284,-9.4494 -4.0222,-12.9914 -4.4787,-5.5831 -13.1235,-7.096 -19.079,-3.0138 z"
           style="fill:#000000;fill-rule:evenodd"
           id="path1990" />
      </g>
      <path
         d="m 7086.6653,3815.0663 c 2.7136,-3.4099 5.091,-7.3362 8.8011,-9.7374 1.2845,1.0204 3.0856,2.053 3.2058,3.9263 -2.5094,2.7494 -5.4031,5.1267 -8.3689,7.372 -1.2487,-0.4683 -2.4614,-0.9846 -3.638,-1.5609 z"
         style="fill:#000000;fill-rule:evenodd"
         id="path1993" />
      <g
         id="Layer1040">
        <path
           d="m 6750.9443,3819.965 c 0.6602,-2.4852 3.7462,-2.3651 5.6794,-3.3616 4.2622,11.4905 8.4287,23.0287 12.5228,34.5914 -2.149,0.1562 -4.2864,0.2641 -6.4234,0.3961 -1.357,-3.8782 -2.6656,-7.7803 -3.9743,-11.6586 -3.5662,0.072 -7.1562,-0.1678 -10.6982,0.3002 -1.777,3.6383 -2.9056,7.5404 -4.4184,11.2863 -1.6929,-0.072 -3.3739,-0.1678 -5.0549,-0.276 3.8902,-10.5178 8.2246,-20.8556 12.367,-31.2778 z m -1.4527,15.8371 v 0 c 2.6173,0 5.2227,-0.012 7.8403,-0.012 -1.2245,-3.59 -2.5094,-7.1562 -3.722,-10.7343 -1.4891,3.5301 -2.8215,7.1321 -4.1183,10.7462 z"
           style="fill:#000000;fill-rule:evenodd"
           id="path1995" />
      </g>
      <path
         d="m 6440.017,3817.7919 c 8.4168,0 16.8333,-0.024 25.2621,0.012 -0.036,1.0326 -0.084,3.074 -0.1079,4.0944 -3.1819,0.1201 -6.3516,0.2161 -9.5216,0.3362 -0.072,9.7255 0.024,19.4629 -0.06,29.2007 -2.0292,-0.024 -4.0342,-0.024 -6.0514,-0.048 -0.036,-9.7013 0,-19.4029 -0.012,-29.1162 -3.2537,-0.072 -6.5078,-0.1923 -9.7496,-0.3961 0.06,-1.0208 0.18,-3.0618 0.2403,-4.0825 z"
         style="fill:#000000;fill-rule:evenodd"
         id="path1998" />
      <g
         id="Layer1041">
        <path
           d="m 6477.6341,3818.5362 c 6.8318,-2.1132 15.8249,-1.5006 20.2916,4.8388 4.0703,6.3516 4.0941,15.0325 0.5402,21.6244 -4.2503,7.2998 -14.372,8.4407 -21.6364,5.5109 -6.0871,-2.5934 -8.4046,-9.7615 -8.1643,-15.9089 -0.3723,-6.4238 2.4373,-13.8199 8.9689,-16.0652 z m 2.6054,3.8422 v 0 c -1.9689,0.3604 -3.8422,1.729 -4.1543,3.8184 -1.1525,5.3309 -1.4407,11.142 0.4564,16.3531 2.7013,7.4802 17.1577,6.8318 17.3496,-1.861 0.5044,-5.0549 1.0926,-10.7462 -1.8008,-15.2368 -2.5577,-3.7939 -7.7926,-4.1543 -11.8509,-3.0737 z"
           style="fill:#000000;fill-rule:evenodd"
           id="path2000" />
      </g>
      <g
         id="Layer1042">
        <path
           d="m 6507.6151,3817.9961 c 8.3566,-0.1321 18.5865,-2.5455 25.142,4.1904 7.1443,8.5489 4.3946,24.7338 -6.7838,28.528 -5.9432,1.873 -12.2707,0.7206 -18.3704,0.5763 -0.096,-11.1063 -0.1079,-22.2004 0.012,-33.2947 z m 6.2795,3.77 v 0 c -0.084,8.5969 -0.084,17.2057 -0.012,25.8145 4.8506,0.06 11.3343,0.7927 14.3719,-3.9021 2.2814,-4.7908 2.3896,-10.626 0.8526,-15.6329 -2.3654,-6.0392 -9.6053,-6.8319 -15.2126,-6.2795 z"
           style="fill:#000000;fill-rule:evenodd"
           id="path2003" />
      </g>
      <g
         id="Layer1043">
        <path
           d="m 6552.028,3818.2602 c 5.8595,-1.4046 12.9194,-1.2607 17.6141,3.0499 3.9981,3.59 5.139,9.269 4.8146,14.444 0.1083,5.9793 -2.9175,12.3789 -8.6568,14.7804 -7.5642,3.1336 -18.5266,1.5608 -21.9365,-6.808 -3.506,-8.729 -2.2092,-22.2245 8.1646,-25.4663 z m 2.6537,3.9382 v 0 c -4.0345,0.096 -5.7634,4.1543 -5.6314,7.6602 -0.228,5.5712 -1.0683,12.8475 4.2146,16.4614 4.7666,2.6414 13.8199,1.5489 14.132,-5.1989 0.7324,-5.1869 1.2007,-11.0702 -1.7409,-15.6809 -2.3777,-3.5301 -7.1324,-4.1063 -10.9743,-3.2418 z"
           style="fill:#000000;fill-rule:evenodd"
           id="path2006" />
      </g>
      <g
         id="Layer1044">
        <path
           d="m 6592.5269,3817.9239 c 5.5232,0.096 11.4065,-1.2365 16.6655,0.9486 6.5555,2.7497 6.6277,12.9673 1.1525,16.8456 -3.3018,2.6295 -7.6603,2.6894 -11.6584,2.9535 0.072,4.2745 0.084,8.5731 -0.048,12.8594 -1.9812,-0.072 -3.9505,-0.036 -5.8956,-0.2763 -0.6603,-11.0821 -0.2161,-22.2245 -0.2161,-33.3308 z m 6.3155,3.5781 v 0 c -0.1559,4.6948 -0.096,9.3892 -0.1198,14.0959 3.8181,-0.8525 8.9808,-2.1251 8.957,-7.0119 0.9965,-5.2468 -4.5746,-7.4083 -8.8372,-7.084 z"
           style="fill:#000000;fill-rule:evenodd"
           id="path2009" />
      </g>
      <g
         id="Layer1045">
        <path
           d="m 6626.086,3820.1093 c 0.5643,-2.6176 3.7582,-2.4733 5.6549,-3.5539 4.3586,11.5024 8.585,23.0767 12.5474,34.7234 -2.1255,0.1202 -4.2626,0.1682 -6.3758,0.2162 -1.3685,-3.8541 -2.6775,-7.7324 -3.9981,-11.5985 -3.59,0.072 -7.1923,0.084 -10.7823,0.1678 -1.4287,3.8184 -2.8334,7.6606 -4.3105,11.4787 -1.6806,-0.096 -3.3739,-0.2043 -5.0426,-0.3241 3.866,-10.4579 8.1766,-20.7477 12.307,-31.1096 z m -1.4049,15.6928 v 0 c 2.6053,0 5.223,-0.012 7.8403,0 -1.2365,-3.6141 -2.5213,-7.2041 -3.7221,-10.818 -1.4526,3.5778 -2.7973,7.192 -4.1182,10.818 z"
           style="fill:#000000;fill-rule:evenodd"
           id="path2012" />
      </g>
      <g
         id="Layer1046">
        <path
           d="m 6647.9382,3817.864 c 6.4237,0.2641 14.36,-2.1731 19.4989,2.8818 4.5386,5.2587 1.8611,13.5435 -3.8422,16.7853 2.7378,4.2142 5.0188,9.5332 10.3501,10.9742 4.1781,-10.0859 8.0683,-20.2793 12.2468,-30.3653 1.6809,-0.456 3.35,-0.9005 5.0429,-1.3328 3.9501,11.5627 8.7409,22.8491 12.1389,34.5918 -2.1013,0.012 -4.1904,0.012 -6.2798,0.012 -1.2606,-3.8664 -2.5812,-7.6963 -3.9501,-11.5144 -3.542,0.072 -7.0598,0.084 -10.5899,0.1079 -1.5728,3.7221 -2.9536,7.5401 -4.2864,11.3585 -4.1063,-0.132 -8.3086,1.0445 -12.3312,-0.1082 -4.3344,-3.2177 -6.0752,-8.6207 -8.8249,-13.0752 -0.7325,0.036 -2.197,0.1079 -2.9294,0.1439 0.06,4.4065 0.096,8.825 -0.1202,13.2437 -1.993,-0.1443 -4.0222,0.012 -5.9673,-0.4806 -0.5044,-11.0579 -0.1443,-22.1523 -0.1562,-33.2225 z m 6.3635,3.5179 v 0 c -0.1079,4.2383 -0.1079,8.489 -0.036,12.7392 1.8008,-0.2161 3.6258,-0.3362 5.415,-0.7082 3.914,-0.3244 3.9382,-5.5954 3.0618,-8.4288 -1.1528,-3.5542 -5.4752,-3.1938 -8.441,-3.6022 z m 33.619,3.494 v 0 c -1.2487,3.6622 -2.6173,7.3002 -3.9861,10.9262 2.6414,-0.012 5.2709,-0.012 7.9243,0 -1.3205,-3.6502 -2.6054,-7.3001 -3.9382,-10.9262 z"
           style="fill:#000000;fill-rule:evenodd"
           id="path2015" />
      </g>
      <path
         d="m 6718.7663,3818.0441 c 1.9451,-0.3121 3.9262,-0.3121 5.9071,-0.4081 0.3002,9.8214 0.048,19.6429 0.1562,29.4766 3.9742,0 7.9604,-0.012 11.9466,0.144 -0.072,1.0326 -0.2039,3.1098 -0.276,4.1543 -5.9432,-0.012 -11.8986,0.024 -17.8422,-0.012 -0.1439,-11.1063 -0.456,-22.2606 0.1083,-33.3549 z"
         style="fill:#000000;fill-rule:evenodd"
         id="path2018" />
      <path
         d="m 6794.2405,3817.9362 c 4.3105,-0.7927 8.7527,-0.4445 13.0633,0.18 0.2641,2.005 -0.4323,3.962 -0.8404,5.8952 -4.3585,-0.9605 -8.897,-2.1013 -13.3515,-1.1167 -3.1456,1.2968 -2.9893,5.223 -3.4216,8.0326 -0.2403,4.995 -0.4564,10.8061 2.8933,14.9124 4.4784,4.0583 10.6499,-0.2042 15.7888,0.9125 0.9847,3.1339 -2.5815,3.6982 -4.7308,4.3224 -5.367,1.2488 -12.0303,1.7893 -16.2449,-2.4614 -4.19,-4.2863 -4.5144,-10.7339 -4.2023,-16.3772 0.096,-6.4715 4.5627,-12.8833 11.0461,-14.2998 z"
         style="fill:#000000;fill-rule:evenodd"
         id="path2020" />
      <g
         id="Layer1047">
        <path
           d="m 6822.1083,3818.4164 c 6.1474,-1.681 13.7355,-1.4649 18.5381,3.2657 4.2387,4.2744 4.8629,10.8061 4.1666,16.5093 -0.4925,5.127 -3.4341,10.2537 -8.3328,12.2829 -7.6844,3.266 -18.9826,1.5969 -22.2126,-7.0841 -3.0376,-8.5366 -2.137,-21.5642 7.8407,-24.9738 z m -1.261,5.415 v 0 c -1.7409,6.3996 -2.6292,13.7116 0.3965,19.859 2.7013,4.6706 9.2691,4.6829 13.6637,2.6176 2.6533,-1.0687 2.8095,-4.3466 3.3378,-6.7477 0.5643,-5.0791 0.7082,-10.9623 -2.8096,-15.0806 -3.8664,-3.9382 -10.0979,-2.8337 -14.5884,-0.6483 z"
           style="fill:#000000;fill-rule:evenodd"
           id="path2022" />
      </g>
      <path
         d="m 6851.7888,3817.7558 c 0.8526,-0.012 2.5455,-0.036 3.398,-0.048 6.9881,7.5404 13.7839,15.2487 20.8076,22.753 0.012,-7.4083 -0.4199,-14.8525 0.1563,-22.2367 1.4288,-0.324 2.8694,-0.5643 4.3343,-0.7324 0.3724,11.3465 0.1082,22.6928 0.144,34.0393 -0.8403,0 -2.5452,0.024 -3.3858,0.036 -6.904,-7.6725 -13.8679,-15.2847 -20.7715,-22.9572 0.096,7.6003 0.1558,15.1887 0.024,22.7891 -1.5728,0.012 -3.1336,0.012 -4.6825,0.012 -0.1202,-11.2264 -0.072,-22.4406 -0.024,-33.6551 z"
         style="fill:#000000;fill-rule:evenodd"
         id="path2025" />
      <path
         d="m 6890.3545,3820.3135 c 4.4065,-4.0583 10.9623,-2.9658 16.3054,-1.813 -0.7086,1.7167 -0.7324,3.8299 -2.0172,5.2587 -3.6622,-0.7804 -7.3482,-1.4407 -11.0944,-1.1524 -0.1559,1.8968 -1.4288,4.2863 0.5405,5.6671 3.734,2.8457 9.1493,3.278 12.0667,7.2519 3.4941,4.887 1.3927,12.3431 -3.9021,15.0087 -5.223,2.7133 -11.4064,1.2127 -16.4133,-1.2487 0.7205,-1.681 1.4529,-3.362 2.3412,-4.9589 3.8664,0.4683 7.4442,3.686 11.5988,2.2092 2.8334,-0.5163 2.2092,-3.9263 2.5213,-6.0273 -3.3021,-2.5696 -7.3723,-3.7343 -10.9021,-5.8713 -4.8748,-2.9179 -5.4153,-10.734 -1.0448,-14.324 z"
         style="fill:#000000;fill-rule:evenodd"
         id="path2027" />
      <path
         d="m 6910.3578,3817.7919 c 8.4529,0.024 16.9055,-0.06 25.3584,0.036 0.048,0.9966 0.1321,3.0016 0.1682,3.9981 -3.1939,0.2284 -6.4238,0.084 -9.5935,0.6127 -0.228,9.6414 -0.012,19.2947 -0.1082,28.948 -2.053,0.024 -4.094,0.024 -6.1113,0.036 -0.1562,-9.7132 -0.048,-19.4268 -0.072,-29.1285 -3.1455,-0.1078 -6.3274,-0.024 -9.4253,-0.5762 -0.06,-0.9846 -0.1681,-2.9416 -0.2161,-3.9262 z"
         style="fill:#000000;fill-rule:evenodd"
         id="path2029" />
      <g
         id="Layer1048">
        <path
           d="m 6940.3147,3817.8279 c 6.3516,0.2761 13.904,-1.957 19.211,2.6534 4.7666,5.2353 2.1732,13.7477 -3.6621,17.0379 2.005,3.0257 3.5301,6.5436 6.3996,8.8848 1.6449,1.4288 5.451,1.873 4.1304,4.8987 -3.2299,0.5646 -7.3481,1.345 -9.8575,-1.3567 -2.6295,-2.8817 -4.1424,-6.5435 -6.1117,-9.8575 -0.5282,-1.6691 -2.4253,-1.7531 -3.77,-2.3174 -0.1201,4.5266 -0.012,9.0652 -0.2641,13.5918 -2.0054,0.048 -4.0223,0.06 -6.0034,0.096 -0.2281,-11.2142 -0.096,-22.4287 -0.072,-33.631 z m 6.3635,3.5421 v 0 c -0.1439,4.2502 -0.132,8.5128 -0.036,12.7753 2.6533,-0.6364 6.0994,0.06 8.0326,-2.2694 0.7082,-2.4614 0.8522,-5.1989 0.048,-7.6484 -1.7171,-2.7136 -5.271,-2.4253 -8.0449,-2.8575 z"
           style="fill:#000000;fill-rule:evenodd"
           id="path2031" />
      </g>
      <path
         d="m 6970.3196,3817.8279 c 1.9093,-0.036 3.8184,-0.06 5.7515,-0.06 0.8043,8.3927 -0.1201,16.8575 0.5283,25.2621 0.06,3.0499 3.2779,4.5505 5.9554,4.5144 2.9896,-0.012 7.456,-0.3481 7.9002,-4.1301 0.9247,-8.5489 0.036,-17.2057 0.4683,-25.7907 1.9213,0.1083 3.8783,0.1563 5.7992,0.4684 0.6123,7.1201 0.2284,14.312 0.2403,21.4563 0.096,6.0514 -4.8027,11.4422 -10.77,12.1266 -5.9194,1.2008 -14.036,-0.5044 -15.5128,-7.3001 -1.1048,-8.7889 -0.4564,-17.7101 -0.3604,-26.547 z"
         style="fill:#000000;fill-rule:evenodd"
         id="path2034" />
      <path
         d="m 7012.2714,3818.7043 c 5.079,-2.0169 10.7462,-1.2365 15.9811,-0.2879 -0.5286,1.8488 -1.0687,3.6979 -1.585,5.547 -4.7547,-0.7324 -10.7581,-3.1938 -14.9243,0.2161 -2.3294,3.8062 -1.501,8.5728 -1.6211,12.8234 0.072,4.01 1.2007,9.6533 5.9193,10.4698 4.3347,0.4922 8.5969,-0.9125 12.8955,-1.2729 0.3121,4.5147 -4.6107,4.803 -7.8525,5.4272 -4.7067,0.7685 -10.3139,0.4564 -13.6878,-3.3619 -3.8062,-4.3106 -4.1904,-10.506 -3.9141,-15.9931 0.288,-5.6191 3.3858,-11.4064 8.7889,-13.5677 z"
         style="fill:#000000;fill-rule:evenodd"
         id="path2036" />
      <path
         d="m 7038.5181,3820.8897 c 5.3071,-4.6468 12.9193,-3.542 19.3431,-2.6176 -0.4445,1.8852 -0.9006,3.7823 -1.3689,5.6672 -4.2264,-0.8884 -8.5608,-1.8849 -12.8832,-1.1766 -3.8541,1.3569 -3.542,6.1235 -3.8541,9.4494 0.06,4.7428 -0.4204,10.5539 3.3857,14.084 4.7547,2.9897 10.5182,-0.012 15.6691,-0.072 0.072,4.9589 -5.5232,4.8268 -9.0411,5.547 -5.7754,1.0929 -12.5711,-1.0925 -14.8644,-6.9159 -2.9539,-7.7443 -2.99,-18.046 3.6138,-23.9654 z"
         style="fill:#000000;fill-rule:evenodd"
         id="path2038" />
      <path
         d="m 7064.0808,3817.6237 c 1.945,0.1083 3.914,0.1321 5.8472,0.4323 0.6963,11.0824 0.2641,22.2367 0.1681,33.343 -2.0292,0.012 -4.0345,0.012 -6.0276,0.024 -0.192,-11.2621 -0.228,-22.5366 0.012,-33.7991 z"
         style="fill:#000000;fill-rule:evenodd"
         id="path2040" />
      <g
         id="Layer1049">
        <path
           d="m 7086.2933,3818.3323 c 6.1113,-1.6449 13.6637,-1.2848 18.3823,3.4699 3.8541,3.9743 4.5985,9.8215 4.1781,15.1166 -0.1919,5.511 -3.1217,11.2622 -8.3685,13.5316 -7.7566,3.3498 -19.1868,1.597 -22.3565,-7.2402 -3.0618,-8.6088 -1.9213,-21.6241 8.1646,-24.8779 z m 2.5935,3.9382 v 0 c -2.6537,0.2522 -4.7789,2.2453 -5.0311,4.9106 -0.6123,4.8387 -1.0445,10.0137 0.5044,14.7324 2.0169,6.7957 12.1148,7.4441 16.4253,2.7255 2.1612,-5.6311 2.4372,-12.271 0.1201,-17.8902 -2.0053,-4.5504 -7.6245,-5.6909 -12.0187,-4.4783 z"
           style="fill:#000000;fill-rule:evenodd"
           id="path2042" />
      </g>
      <path
         d="m 7115.7696,3817.732 c 0.8645,0 2.5816,-0.012 3.4461,-0.012 6.8199,7.6844 13.8798,15.1646 20.6755,22.8732 0.1443,-7.6725 -0.228,-15.3569 0.2165,-23.0172 1.4526,0.096 2.9175,0.2764 4.3823,0.5044 0.5044,11.2384 0.192,22.5247 0.1321,33.763 -1.6211,-0.3481 -3.554,-0.132 -4.6107,-1.6449 -6.6876,-7.084 -13.0034,-14.492 -19.679,-21.5761 0.132,7.4921 0.5523,15.0203 0,22.5005 -1.5129,0.2522 -3.0258,0.4445 -4.5386,0.5766 -0.1562,-11.3224 -0.1321,-22.6448 -0.024,-33.9672 z"
         style="fill:#000000;fill-rule:evenodd"
         id="path2045" />
    </g>
  </g>
</svg>
