<?xml version="1.0" encoding="UTF-8" standalone="no"?>
<svg
   version="1.1"
   width="1729.5309pt"
   height="592.12939pt"
   id="svg2130"
   viewBox="0 0 1729.5309 592.12939"
   xmlns="http://www.w3.org/2000/svg"
   xmlns:svg="http://www.w3.org/2000/svg">
  <defs
     id="defs2134" />
  <path
     d="m 212.03207,493.30766 c 0,-17.3661 -11.5882,-29.8606 -29.4075,-29.8606 h -59.7214 v 59.7213 h 59.7214 c 17.8193,0 29.4075,-12.5107 29.4075,-29.8607 z m -89.1289,-148.3485 v 55.2221 h 50.8198 c 16.039,0 27.1741,-11.5883 27.1741,-27.6434 0,-16.039 -10.6819,-27.5787 -27.1741,-27.5787 z m 160.4385,153.7057 c 0,55.222 -45.0419,91.2976 -100.7171,91.2976 H 51.642174 V 278.10036 H 173.72297 c 54.3481,0 98.4351,35.234 98.4351,89.1289 0,25.8145 -10.2287,46.3043 -27.1902,61.0323 23.1926,14.6795 38.3738,38.7785 38.3738,70.4033 z"
     style="fill:#000917;fill-rule:evenodd"
     id="path1576" />
  <path
     d="m 390.24127,425.13796 h 53.4417 c 19.632,0 35.6872,-17.3661 35.6872,-40.0894 0,-22.7232 -16.0552,-40.1379 -35.6872,-40.1379 h -53.4417 z m 33.8583,62.3433 h -33.8583 v 102.4812 h -71.3096 v -311.8459 h 124.7513 c 59.2682,0 106.932,47.6638 106.932,106.932 0,38.3091 -23.1764,73.0252 -57.4393,90.4398 l 66.3571,114.4741 h -76.6344 z"
     style="fill:#000917;fill-rule:evenodd"
     id="path1578" />
  <path
     d="m 664.24747,589.99486 h -71.3258 v -311.8621 h 71.3258 z"
     style="fill:#000917;fill-rule:evenodd"
     id="path1580" />
  <path
     d="m 900.38147,521.37186 v 68.623 h -182.66 v -311.8459 h 71.2611 v 243.2229 z"
     style="fill:#000917;fill-rule:evenodd"
     id="path1582" />
  <path
     d="m 1114.2293,521.37186 v 68.623 H 931.58547 v -311.8459 h 71.26113 v 243.2229 z"
     style="fill:#000917;fill-rule:evenodd"
     id="path1584" />
  <path
     d="m 1315.615,474.14506 -36.5288,-114.4902 -36.5449,114.4902 z m 21.4123,66.7941 h -115.8498 l -15.5858,49.0557 h -77.9938 l 106.0256,-311.8621 h 90.9092 l 106.0257,311.8621 h -77.9453 z"
     style="fill:#000917;fill-rule:evenodd"
     id="path1586" />
  <path
     d="m 215.81927,180.62026 4.8554,-0.9711 c 3.2531,-0.8416 6.6843,-3.6416 10.2773,-8.2704 3.5444,-4.6773 5.3085,-8.7397 5.3085,-12.2194 v -0.2913 c 0,-1.5375 -0.5179,-2.9132 -1.6023,-4.2242 -1.0843,-1.311 -2.3953,-2.1687 -3.8843,-2.6219 -0.4531,-0.178 -1.0843,-0.2913 -1.9259,-0.2913 -1.1006,0 -2.0069,0.2913 -2.6381,0.971 -0.6312,0.6312 -1.1977,1.7156 -1.6023,3.2532 -1.5376,3.6577 -5.082,11.4911 -10.7304,23.3544 -0.4532,1.311 0.2265,1.7803 1.9421,1.311 z m -15.7477,-29.5694 c 9.1767,-9.5327 19.2274,-14.2748 30.0226,-14.2748 9.1443,0 17.01,3.0265 23.759,9.0795 6.6681,6.0531 10.0507,13.1258 10.0507,21.121 0,8.2218 -4.1109,15.6506 -12.3327,22.2701 -8.2218,6.6195 -20.2794,11.4264 -36.0918,14.4529 -4.5155,0.8578 -7.1374,3.3664 -7.7686,7.4773 -1.0844,5.4219 -1.6508,8.9663 -1.6508,10.7304 0,4.3375 1.3109,7.8819 3.9328,10.7304 2.5734,2.8 5.5999,4.1757 9.0796,4.1757 3.2531,0 6.6843,-0.9711 10.3906,-2.9133 3.6577,-1.9421 8.6911,-5.3085 14.9708,-10.0506 5.5837,-4.1109 10.1639,-7.1375 13.6436,-9.1282 3.415,-1.9421 6.5063,-2.9132 9.0796,-2.9132 2.6219,0 4.904,0.9063 6.8461,2.7838 1.9422,1.8288 2.9133,3.8357 2.9133,6.0045 0,4.7421 -3.593,10.0506 -10.7305,15.9257 -7.364,6.053 -16.2817,11.0217 -26.7856,14.9546 -10.5038,3.8843 -20.4412,5.8265 -29.7473,5.8265 -11.0703,0 -19.6968,-2.9618 -25.9764,-8.9663 -6.2797,-5.9236 -9.4195,-14.9547 -9.4195,-27.1093 0,-8.4484 1.3757,-17.6413 4.2242,-27.5787 5.1953,-18.8389 12.3975,-33.0652 21.5903,-42.598 z"
     style="fill:#000917;fill-rule:evenodd"
     id="path1588" />
  <path
     d="m 324.01367,168.27136 c 5.6485,-6.5062 9.9859,-10.8923 13.1905,-13.3038 3.0751,-2.3953 6.5062,-3.593 10.2125,-3.593 12.9639,0 19.4701,10.0021 19.4701,29.9254 0,5.8265 -0.7444,14.8899 -2.282,27.2874 -1.0844,7.9952 -1.6023,13.3037 -1.6023,15.8771 0,3.4797 0.5179,5.4219 1.6023,5.875 0.2266,0.2266 0.6798,0.3399 1.311,0.3399 1.5375,0 3.0265,-0.9711 4.564,-2.9618 2.3468,-2.5733 4.5641,-5.8912 6.6196,-9.8888 2.0554,-3.9814 3.2045,-6.2149 3.4311,-6.6681 l 1.6508,-1.9421 c 1.0844,-1.0844 2.0555,-1.6023 2.9133,-1.6023 h 0.6312 c 1.5375,0.178 2.282,1.2624 2.282,3.2045 0,4.3375 -2.3953,11.1836 -7.1374,20.4898 -8.4484,16.4436 -16.6702,24.6654 -24.714,24.6654 -3.2531,0 -5.4866,-2.0554 -6.7975,-6.1663 -1.311,-4.3375 -1.9422,-10.0507 -1.9422,-17.1881 l 0.6312,-19.5187 0.6798,-16.5569 c 0,-9.3062 -1.5376,-13.9998 -4.5641,-13.9998 -0.8578,0 -1.7641,0.3399 -2.6219,0.9711 -6.2797,3.7225 -12.3327,10.5039 -18.1592,20.3279 -5.8912,9.8727 -10.6171,20.5546 -14.3396,32.0295 -3.415,10.6171 -5.4219,16.7835 -5.8265,18.499 -0.6797,1.9422 -2.8485,2.9133 -6.5062,2.9133 -0.8578,0 -3.4797,0.065 -7.8172,0.178 -4.2889,0.1133 -7.542,-2.7514 -9.7108,-8.6264 -2.1687,-5.8265 -3.2531,-14.8413 -3.2531,-26.9475 0,-11.2483 0.2266,-22.788 0.6312,-34.6028 0.4532,-11.8147 0.8578,-19.0169 1.311,-21.6388 0.4531,-2.5734 3.9976,-5.8751 10.7304,-9.8727 6.6842,-3.9976 11.7662,-5.8912 15.2459,-5.7132 1.9422,0.4532 3.4797,2.622 4.5803,6.5063 0.615,2.7999 1.1977,7.4773 1.5861,13.9835 0,6.2958 0.1133,9.9374 0.3399,11.0218 0,1.3109 0.4693,1.5537 1.3271,0.6959 1.6994,-1.7803 5.8103,-6.3929 12.3327,-13.9997 z"
     style="fill:#000917;fill-rule:evenodd"
     id="path1590" />
  <path
     d="m 413.67667,258.27416 c -4.1109,0 -7.7039,-1.4728 -10.7304,-4.564 -4.7421,-3.6578 -8.2704,-8.6265 -10.5686,-14.9061 -2.2821,-6.2796 -3.415,-13.4656 -3.415,-21.4609 0,-12.7858 2.7352,-25.8145 8.1571,-39.1668 5.4218,-13.3038 12.7373,-24.3903 21.9302,-33.2918 9.1929,-8.853 19.2921,-13.3038 30.3786,-13.3038 2.3953,0 4.2242,0.1133 5.5351,0.2913 10.3906,5.6484 15.5858,13.9835 15.5858,25.0538 0,5.1953 -0.971,10.2773 -2.9132,15.246 -0.2266,1.5537 -1.4242,2.282 -3.593,2.282 -0.8578,0 -1.6508,-0.1133 -2.4601,-0.3399 -0.7444,-0.2265 -1.3109,-0.3398 -1.7641,-0.3398 -0.8578,-0.8578 -2.0069,-2.4601 -3.4311,-4.8554 -1.3757,-2.3954 -2.3954,-3.8843 -3.0751,-4.5641 -1.3272,-1.7156 -3.0265,-2.5734 -5.1953,-2.5734 -3.6577,0 -7.1374,2.1688 -10.3905,6.5063 -2.8,3.6577 -5.0335,8.5131 -6.6843,14.4529 -1.6023,5.9397 -2.3953,11.8795 -2.3953,17.706 0,6.2796 0.9711,11.3616 2.9132,15.2945 1.926,3.8843 4.7259,5.8264 8.4484,5.8264 4.9687,0 10.8923,-7.0241 17.8679,-21.1209 1.9421,-3.6578 3.3664,-5.9398 4.2242,-6.7976 0.4046,-0.4532 2.3467,-1.2624 5.6484,-2.46 3.3664,-1.1977 5.7132,-1.9908 7.0241,-2.4601 2.3954,0 3.5445,2.0554 3.5445,6.1663 0,1.7803 -0.1781,4.1109 -0.6312,7.2022 -0.4532,3.0265 -0.7445,5.3086 -0.9711,6.7976 -1.311,7.364 -1.9422,12.446 -1.9422,15.2459 0,5.0172 1.3757,7.4773 4.2242,7.4773 4.3375,0 13.0772,-6.2796 26.3163,-18.8389 0.8578,-0.8578 2.2982,-2.2335 4.4022,-4.2242 2.0555,-1.9422 3.4797,-2.9133 4.3375,-2.9133 0.8578,0 1.4242,0.7284 1.6508,2.2821 0,2.7999 -2.3953,8.3351 -7.1212,16.5569 -4.8069,8.2218 -10.4553,15.6991 -17.0748,22.4319 -6.6357,6.6843 -12.7374,10.0507 -18.3858,10.0507 -8.6264,0 -14.9061,-8.5617 -18.8389,-25.6365 -17.9974,17.9811 -31.5277,26.9474 -40.6073,26.9474 z"
     style="fill:#000917;fill-rule:evenodd"
     id="path1592" />
  <path
     d="m 574.50357,39.61956 c -1.0844,2.3953 -3.4312,10.5686 -6.9756,24.5521 -3.593,13.935 -5.697,23.0146 -6.3282,27.1255 l -4.9202,31.5115 -3.2531,29.2295 0.3399,2.9132 2.6381,-3.2531 2.282,-2.9132 c 9.4681,-15.5859 17.5766,-33.1138 24.1475,-52.6487 6.6196,-19.4701 11.3617,-37.6779 14.1616,-54.5747 0.2266,-0.4046 0.3399,-1.6022 0.3399,-3.5444 0,-3.4797 -0.8578,-6.3282 -2.4601,-8.6264 -1.5861,-2.2821 -3.6415,-3.415 -5.9883,-3.415 -2.1687,0 -4.5641,1.2462 -7.1374,3.7063 -2.6219,2.5086 -4.904,5.8265 -6.8461,9.9374 z m -58.8151,160.8431 c 0,-15.424 1.489,-34.8942 4.4023,-58.5237 2.9132,-23.5811 7.6391,-46.8222 14.0968,-69.6588 6.5062,-22.8365 14.728,-40.5425 24.7301,-53.1666 10.164,-12.7210998 20.6678,-19.11399975517 31.5116,-19.11399975517 3.4311,0 6.1663,0.38839999517 8.1085,1.24619995517 7.5906,5.6484 11.3616,17.5926998 11.3616,35.7518998 l -0.9711,13.9835 c -0.8578,4.5641 -1.8288,11.3616 -2.9132,20.4898 -0.6312,6.5224 -1.5376,11.831 -2.6219,16.0552 -1.0844,4.2241 -2.9133,9.3547 -5.4866,15.4725 -1.311,3.6577 -9.2415,20.8944 -23.7429,51.6128 -2.1849,3.7063 -6.9109,11.9281 -14.2749,24.714 l -10.7466,19.195 c -3.6415,6.4415 -5.5351,13.9188 -5.5351,22.3834 0,7.5906 1.6022,14.1454 4.7421,19.6967 3.1398,5.4704 7.4287,8.2703 12.8506,8.2703 6.053,0 10.9084,-2.4438 14.6147,-7.2992 3.6578,-4.9202 7.4773,-11.7663 11.3616,-20.6678 1.489,-4.1109 2.8485,-7.1375 4.0462,-9.0796 1.1977,-1.9422 2.3468,-2.9133 3.4312,-2.9133 2.3953,0 3.5444,3.1399 3.5444,9.4195 0,5.1953 -0.9225,11.1351 -2.7514,17.8679 -1.8289,6.6842 -4.4993,12.7858 -7.9305,18.1591 -2.8485,4.5641 -6.7328,8.0438 -11.7015,10.3906 -5.0334,2.3953 -10.3905,3.593 -16.2817,3.593 -7.7525,0 -15.1165,-2.1688 -22.0921,-6.5062 -6.9108,-4.3375 -12.1061,-10.6172 -15.5858,-18.839 -4.1109,-11.0217 -6.1664,-25.2319 -6.1664,-42.5332 z"
     style="fill:#000917;fill-rule:evenodd"
     id="path1594" />
  <path
     d="m 640.94157,237.97866 c -5.082,6.6195 -10.779,12.3812 -17.0587,17.3499 -1.9421,1.311 -3.9976,2.0069 -6.1663,2.0069 -3.6577,0 -7.1374,-1.3757 -10.4067,-4.1109 -3.2532,-2.6866 -4.9526,-5.7779 -5.1953,-9.2576 -1.0844,-14.5014 -1.5861,-30.3139 -1.5861,-47.4372 l 0.2751,-26.2677 v -4.2242 c 0,-2.1687 0.4694,-4.0623 1.311,-5.5351 0.6312,-1.0844 1.8288,-2.2983 3.6092,-3.6092 1.7155,-1.311 3.3664,-2.3954 5.0172,-3.415 1.6023,-0.9711 3.0913,-1.7803 4.4022,-2.4115 3.415,-1.7641 5.5837,-2.6219 6.4415,-2.6219 4.1109,-0.1619 7.2022,3.8357 9.1443,12.0576 2.5734,11.2483 3.8844,26.5913 3.8844,46.1262 0.4531,0.4046 0.8577,0.6312 1.3109,0.6312 1.311,0 3.0265,-1.0844 5.1953,-3.2531 3.2531,-2.3468 6.0531,-5.3733 8.4484,-8.9177 2.3953,-3.593 5.3085,-8.8369 8.7397,-15.7477 4.1594,-8.4484 8.2703,-14.9708 12.3812,-19.5349 3.0266,-3.415 7.0242,-5.1953 11.9929,-5.1953 3.4797,0 6.6842,1.1491 9.5975,3.4312 2.9132,2.282 5.0172,5.5999 6.3282,9.9374 2.1687,6.668 3.4311,13.0772 3.7224,19.114 0.3399,6.1178 0.5018,13.142 0.5018,21.1372 0,0.4532 0.2427,0.6797 0.6312,0.6797 l 0.6959,-0.3398 c 2.3953,-2.8 7.4773,-10.0507 15.2298,-21.7522 8.6911,-13.2552 14.7442,-21.8169 18.2239,-25.7012 4.7421,-5.4219 9.646,-8.1085 14.6147,-8.1085 l 3.8843,0.6312 c 5.6485,1.9421 8.4484,11.8148 8.4484,29.5855 l -0.6312,20.4898 -0.6797,14.906 c 0,2.8485 0.2266,5.3086 0.6797,7.4773 0.4046,1.7642 0.9711,2.622 1.6023,2.622 0.6798,0 1.5376,-0.5665 2.6219,-1.6509 0.8578,-0.8578 3.2531,-4.2889 7.1375,-10.3905 2.3953,-4.5155 5.0819,-8.5617 8.1085,-11.9928 1.5375,-1.7642 3.0265,-2.622 4.564,-2.622 1.0844,0 2.0069,0.4532 2.7514,1.311 0.7931,0.8578 1.133,1.8289 1.133,2.9132 0,1.5376 -0.1133,2.6219 -0.2752,3.2531 -2.4115,9.5328 -4.6935,17.0101 -6.8623,22.432 -2.5572,6.2796 -6.2796,11.3616 -11.0217,15.2459 -4.7907,3.8843 -10.7305,5.8912 -17.8679,5.8912 -5.6484,0 -10.1639,-1.8288 -13.5304,-5.3733 -3.3016,-3.593 -5.0172,-8.5131 -5.0172,-14.7927 0,-5.8751 0.4532,-13.0125 1.311,-21.4609 l 0.6312,-9.0796 c 0.2266,-4.7906 0.1133,-7.0241 -0.2914,-6.8461 l -6.5062,11.0703 c -4.5641,7.364 -8.675,13.5304 -12.3327,18.4991 -4.8068,6.5062 -9.7593,11.3616 -14.9546,14.6147 -5.1953,3.2531 -10.1154,4.904 -14.6309,4.904 -6.7329,0 -11.475,-3.7063 -14.3235,-11.0703 -2.5733,-6.6843 -4.7421,-17.6413 -6.4576,-32.8225 0,-1.0844 -0.1133,-1.8289 -0.3399,-2.2335 -0.2266,-0.6798 -0.5179,-1.2624 -0.7931,-1.8289 -0.3398,-0.5179 -0.8577,-0.3398 -1.4889,0.5179 l -8.1086,12.9639 c -6.9594,11.9281 -12.9639,21.1858 -18.0458,27.8053 z"
     style="fill:#000917;fill-rule:evenodd"
     id="path1596" />
  <path
     d="m 816.22127,258.27416 c -4.1109,0 -7.7039,-1.4728 -10.7304,-4.564 -4.7421,-3.6578 -8.2865,-8.6265 -10.5686,-14.9061 -2.282,-6.2796 -3.4149,-13.4656 -3.4149,-21.4609 0,-12.7858 2.7352,-25.8145 8.157,-39.1668 5.4219,-13.3038 12.7374,-24.3903 21.9302,-33.2918 9.1929,-8.853 19.2921,-13.3038 30.3786,-13.3038 2.3954,0 4.2242,0.1133 5.5352,0.2913 10.3905,5.6484 15.5858,13.9835 15.5858,25.0538 0,5.1953 -0.9711,10.2773 -2.9132,15.246 -0.2266,1.5537 -1.4243,2.282 -3.593,2.282 -0.8578,0 -1.667,-0.1133 -2.4601,-0.3399 -0.7445,-0.2265 -1.3109,-0.3398 -1.7641,-0.3398 -0.8578,-0.8578 -2.0069,-2.4601 -3.4312,-4.8554 -1.3757,-2.3954 -2.3953,-3.8843 -3.075,-4.5641 -1.3272,-1.7156 -3.0266,-2.5734 -5.2115,-2.5734 -3.6416,0 -7.1213,2.1688 -10.3906,6.5063 -2.7837,3.6577 -5.0172,8.5131 -6.668,14.4529 -1.6023,5.9397 -2.3954,11.8795 -2.3954,17.706 0,6.2796 0.9549,11.3616 2.8971,15.2945 1.9422,3.8843 4.7421,5.8264 8.4646,5.8264 4.9525,0 10.8922,-7.0241 17.8678,-21.1209 1.9422,-3.6578 3.3664,-5.9398 4.2242,-6.7976 0.3884,-0.4532 2.3306,-1.2624 5.6485,-2.46 3.3664,-1.1977 5.7131,-1.9908 7.0241,-2.4601 2.3953,0 3.5444,2.0554 3.5444,6.1663 0,1.7803 -0.178,4.1109 -0.6312,7.2022 -0.4531,3.0265 -0.7445,5.3086 -0.971,6.7976 -1.311,7.364 -1.9422,12.446 -1.9422,15.2459 0,5.0172 1.3757,7.4773 4.2242,7.4773 4.3375,0 13.0772,-6.2796 26.3162,-18.8389 0.8578,-0.8578 2.2821,-2.2335 4.4023,-4.2242 2.0554,-1.9422 3.4797,-2.9133 4.3375,-2.9133 0.8577,0 1.4242,0.7284 1.6508,2.2821 0,2.7999 -2.3953,8.3351 -7.1374,16.5569 -4.7907,8.2218 -10.4391,15.6991 -17.0587,22.4319 -6.6357,6.6843 -12.7373,10.0507 -18.3857,10.0507 -8.6265,0 -14.9061,-8.5617 -18.8552,-25.6365 -17.9811,17.9811 -31.5115,26.9474 -40.5911,26.9474 z"
     style="fill:#000917;fill-rule:evenodd"
     id="path1598" />
  <path
     d="m 1042.3533,57.16366 c -1.6994,0 -3.593,1.7156 -5.5352,5.1953 -2.7999,4.3375 -5.5351,10.957 -8.2703,19.81 -2.6867,8.9016 -4.6936,19.5349 -6.0045,31.8676 l -0.6312,4.8554 c 0,0.2266 0.065,0.3399 0.2913,0.3399 6.9594,-9.5328 12.624,-19.6967 17.0748,-30.5566 4.4508,-10.8438 6.6843,-19.3569 6.6843,-25.6851 0,-4.1109 -1.0844,-6.053 -3.2531,-5.8265 z m -67.87843,128.0045 c -2.3954,0 -4.5641,1.3109 -6.5063,3.8843 -2.7999,4.1109 -5.1952,10.1639 -7.1374,18.0459 -1.9422,7.9304 -2.978,15.1326 -2.978,21.6388 0,9.0796 2.0555,12.8507 6.2311,11.3617 4.4994,-1.5376 8.9663,-6.7328 13.3038,-15.5859 4.3375,-8.9015 6.5062,-17.01 6.5062,-24.374 l -0.3398,-3.6092 c -1.7156,-7.5259 -4.7421,-11.3616 -9.0796,-11.3616 z m 20.4412,-32.8225 0.9711,-15.9257 c 2.6219,-23.8238 6.44153,-43.7471 11.52343,-59.7861 5.082,-15.9905 11.0218,-27.5787 17.706,-34.7161 6.1017,-6.7328 12.268,-10.0992 18.5477,-10.0992 5.438,0 9.8888,2.282 13.4818,6.8461 3.5444,4.5155 5.3733,9.9374 5.3733,16.217 0,14.3234 -3.8358,31.9161 -11.3617,52.8105 -7.6067,20.8944 -20.166,42.7113 -37.694,65.4831 -0.9063,12.1062 -1.8774,21.1857 -2.9618,27.3035 -1.9422,14.5015 -2.9132,25.5232 -2.9132,33.1138 0,11.475 2.5086,17.2367 7.4773,17.2367 5.8264,0 15.2459,-7.186 28.2584,-21.4609 0.6959,-0.6312 1.5537,-0.971 2.6381,-0.971 1.4728,0 2.5571,0.5179 3.1883,1.6022 0.6798,0.6798 -0.7444,3.9329 -4.1594,9.7594 -3.7225,6.2796 -8.6912,12.6726 -14.9708,19.1788 -6.2797,6.5062 -12.8992,11.7015 -19.81,15.5858 -2.8485,1.489 -5.5352,2.2821 -8.1571,2.2821 -4.74213,0 -8.51313,-2.5087 -11.19983,-7.4774 -2.6866,-4.9686 -4.0461,-11.2483 -4.0461,-18.8389 0,-3.2531 0.2266,-6.3929 0.6312,-9.4195 l -8.7397,9.0796 c -4.5641,4.5641 -9.9374,8.5617 -16.1038,12.0414 -6.1663,3.4312 -12.1546,5.1953 -18.0459,5.1953 -7.7686,0 -14.2748,-2.9618 -19.4701,-8.9663 -5.1953,-5.9236 -7.8172,-13.4656 -7.8172,-22.5452 0,-12.7859 3.5445,-26.7209 10.5686,-41.7402 7.0241,-15.068 15.1165,-25.9764 24.1961,-32.6607 1.9421,-1.7641 4.8553,-3.0751 8.8044,-4.0461 3.8843,-1.0359 7.6392,-1.489 11.3616,-1.489 1.311,0 3.0266,0.2266 5.1953,0.6312 5.8265,1.3109 10.0507,3.8196 12.6726,7.4773 l 3.8843,6.1663 c 0.2266,-0.8577 0.5665,-6.7975 0.9711,-17.8678 z"
     style="fill:#000917;fill-rule:evenodd"
     id="path1600" />
  <path
     d="m 1089.7905,180.62026 4.8554,-0.9711 c 3.2531,-0.8416 6.6681,-3.6416 10.2773,-8.2704 3.5282,-4.6773 5.3085,-8.7397 5.3085,-12.2194 v -0.2913 c 0,-1.5375 -0.5179,-2.9132 -1.6023,-4.2242 -1.0843,-1.311 -2.3953,-2.1687 -3.8843,-2.6219 -0.4531,-0.178 -1.0843,-0.2913 -1.9421,-0.2913 -1.0844,0 -1.9907,0.2913 -2.6219,0.971 -0.6312,0.6312 -1.1977,1.7156 -1.6023,3.2532 -1.5376,3.6577 -5.082,11.4911 -10.7304,23.3544 -0.4532,1.311 0.2265,1.7803 1.9421,1.311 z m -15.7638,-29.5694 c 9.1928,-9.5327 19.2435,-14.2748 30.0387,-14.2748 9.1281,0 17.01,3.0265 23.7429,9.0795 6.6842,6.0531 10.0506,13.1258 10.0506,21.121 0,8.2218 -4.1109,15.6506 -12.3327,22.2701 -8.2218,6.6195 -20.2632,11.4264 -36.0756,14.4529 -4.5155,0.8578 -7.1374,3.3664 -7.7686,7.4773 -1.0844,5.4219 -1.6508,8.9663 -1.6508,10.7304 0,4.3375 1.3109,7.8819 3.9328,10.7304 2.5734,2.8 5.5999,4.1757 9.0796,4.1757 3.2531,0 6.6843,-0.9711 10.3906,-2.9133 3.6577,-1.9421 8.6749,-5.3085 14.9546,-10.0506 5.5999,-4.1109 10.164,-7.1375 13.6437,-9.1282 3.4311,-1.9421 6.5224,-2.9132 9.0795,-2.9132 2.6381,0 4.8554,0.9063 6.8623,2.7838 1.9422,1.8288 2.9133,3.8357 2.9133,6.0045 0,4.7421 -3.6092,10.0506 -10.7466,15.9257 -7.3641,6.053 -16.2656,11.0217 -26.7695,14.9546 -10.5038,3.8843 -20.4412,5.8265 -29.7473,5.8265 -11.0865,0 -19.6968,-2.9618 -25.9764,-8.9663 -6.2797,-5.9236 -9.4195,-14.9547 -9.4195,-27.1093 0,-8.4484 1.3595,-17.6413 4.2242,-27.5787 5.1953,-18.8389 12.3813,-33.0652 21.5742,-42.598 z"
     style="fill:#000917;fill-rule:evenodd"
     id="path1602" />
  <path
     d="m 1197.9687,168.27136 c 5.6647,-6.5062 10.0021,-10.8923 13.142,-13.3038 3.1398,-2.3953 6.5547,-3.593 10.2772,-3.593 12.9639,0 19.4702,10.0021 19.4702,29.9254 0,5.8265 -0.7445,14.8899 -2.2821,27.2874 -1.0844,7.9952 -1.6023,13.3037 -1.6023,15.8771 0,3.4797 0.5179,5.4219 1.6023,5.875 0.2266,0.2266 0.6798,0.3399 1.311,0.3399 1.5375,0 3.0265,-0.9711 4.564,-2.9618 2.3468,-2.5733 4.5641,-5.8912 6.6196,-9.8888 2.0554,-3.9814 3.2045,-6.2149 3.4311,-6.6681 l 1.6508,-1.9421 c 1.0844,-1.0844 2.0555,-1.6023 2.9133,-1.6023 h 0.6312 c 1.5375,0.178 2.282,1.2624 2.282,3.2045 0,4.3375 -2.3953,11.1836 -7.1374,20.4898 -8.4484,16.4436 -16.6702,24.6654 -24.7302,24.6654 -3.2531,0 -5.4704,-2.0554 -6.7813,-6.1663 -1.311,-4.3375 -1.9422,-10.0507 -1.9422,-17.1881 l 0.6312,-19.5187 0.6798,-16.5569 c 0,-9.3062 -1.5376,-13.9998 -4.5641,-13.9998 -0.8578,0 -1.7803,0.3399 -2.6381,0.9711 -6.2796,3.7225 -12.3327,10.5039 -18.143,20.3279 -5.8912,9.8727 -10.6333,20.5546 -14.3396,32.0295 -3.4311,10.6171 -5.4219,16.7835 -5.8265,18.499 -0.6797,1.9422 -2.8485,2.9133 -6.5062,2.9133 -0.8578,0 -3.4797,0.065 -7.8172,0.178 -4.2889,0.1133 -7.542,-2.7514 -9.7108,-8.6264 -2.1687,-5.8265 -3.2531,-14.8413 -3.2531,-26.9475 0,-11.2483 0.2266,-22.788 0.6312,-34.6028 0.4532,-11.8147 0.8578,-19.0169 1.311,-21.6388 0.4531,-2.5734 3.9976,-5.8751 10.7304,-9.8727 6.6843,-3.9976 11.7662,-5.8912 15.2459,-5.7132 1.9422,0.4532 3.4797,2.622 4.5641,6.5063 0.6312,2.7999 1.1977,7.4773 1.6023,13.9835 0,6.2958 0.1133,9.9374 0.3399,11.0218 0,1.3109 0.4531,1.5537 1.3109,0.6959 1.7156,-1.7803 5.8265,-6.3929 12.3327,-13.9997 z"
     style="fill:#000917;fill-rule:evenodd"
     id="path1604" />
  <path
     d="m 1287.6479,258.27416 c -4.1109,0 -7.7039,-1.4728 -10.7304,-4.564 -4.7421,-3.6578 -8.2866,-8.6265 -10.5686,-14.9061 -2.2821,-6.2796 -3.415,-13.4656 -3.415,-21.4609 0,-12.7858 2.7352,-25.8145 8.1571,-39.1668 5.4218,-13.3038 12.7373,-24.3903 21.9302,-33.2918 9.1929,-8.853 19.2921,-13.3038 30.3624,-13.3038 2.4115,0 4.2242,0.1133 5.5513,0.2913 10.3906,5.6484 15.5858,13.9835 15.5858,25.0538 0,5.1953 -0.971,10.2773 -2.9132,15.246 -0.2266,1.5537 -1.4242,2.282 -3.593,2.282 -0.8578,0 -1.667,-0.1133 -2.4601,-0.3399 -0.7444,-0.2265 -1.3109,-0.3398 -1.7803,-0.3398 -0.8416,-0.8578 -1.9907,-2.4601 -3.4149,-4.8554 -1.3757,-2.3954 -2.3954,-3.8843 -3.0913,-4.5641 -1.311,-1.7156 -3.0265,-2.5734 -5.1953,-2.5734 -3.6415,0 -7.1374,2.1688 -10.3905,6.5063 -2.8,3.6577 -5.0173,8.5131 -6.6843,14.4529 -1.5861,5.9397 -2.3953,11.8795 -2.3953,17.706 0,6.2796 0.9711,11.3616 2.9132,15.2945 1.9422,3.8843 4.7421,5.8264 8.4484,5.8264 4.9687,0 10.9085,-7.0241 17.8841,-21.1209 1.9259,-3.6578 3.3664,-5.9398 4.2242,-6.7976 0.3884,-0.4532 2.3305,-1.2624 5.6484,-2.46 3.3664,-1.1977 5.7132,-1.9908 7.0241,-2.4601 2.3954,0 3.5283,2.0554 3.5283,6.1663 0,1.7803 -0.1619,4.1109 -0.615,7.2022 -0.4694,3.0265 -0.7445,5.3086 -0.9711,6.7976 -1.311,7.364 -1.9422,12.446 -1.9422,15.2459 0,5.0172 1.3596,7.4773 4.2242,7.4773 4.3375,0 13.0772,-6.2796 26.3163,-18.8389 0.8578,-0.8578 2.282,-2.2335 4.4022,-4.2242 2.0555,-1.9422 3.4797,-2.9133 4.3375,-2.9133 0.8578,0 1.4242,0.7284 1.6508,2.2821 0,2.7999 -2.3953,8.3351 -7.1374,16.5569 -4.7907,8.2218 -10.4391,15.6991 -17.0748,22.4319 -6.6195,6.6843 -12.7212,10.0507 -18.3858,10.0507 -8.6102,0 -14.8899,-8.5617 -18.8389,-25.6365 -17.9812,17.9811 -31.5115,26.9474 -40.5911,26.9474 z"
     style="fill:#000917;fill-rule:evenodd"
     id="path1606" />
  <path
     d="m 133.34227,218.58946 c 0,-1.6994 0.1133,-3.2531 0.4046,-4.6774 0.2752,-1.4242 0.4532,-4.386 0.4532,-8.9663 0,-11.9281 -1.9421,-20.7811 -5.7617,-26.6076 -3.8358,-5.8103 -11.4264,-11.7015 -22.788,-17.6898 -11.070296,-5.9398 -21.185696,-8.9177 -30.265296,-8.9177 -4.7907,0 -8.497,0.971 -11.0703,2.9779 -1.1491,1.133 -1.6509,3.9977 -1.6509,8.497 -0.356,1.7156 -0.4046,4.467 -0.2427,8.3513 0.1295,3.8195 0.2427,8.2703 0.2427,13.417 l 0.3885,17.8679 0.8578,40.4778 0.8578,1.2624 c 3.6577,3.9976 8.6264,7.6392 14.906,11.0703 6.2149,3.4312 12.4946,5.1306 18.7257,5.1306 5.713096,0 10.795096,-1.4243 15.359196,-4.2728 11.6529,-10.5038 18.1592,-23.1279 19.5834,-37.9206 z M 55.413174,112.51526 c 0.2752,1.9907 1.0197,4.0461 2.3306,6.1663 1.2624,2.1688 2.6219,3.3664 4.0624,3.6577 h 1.2462 c 1.4242,0 3.1398,-0.4693 5.1467,-1.2624 1.9422,-0.8577 3.5283,-1.8774 4.6774,-3.0265 8.2218,-9.9374 13.6436,-17.528 16.395,-22.788 2.6705,-5.2438 4.904,-12.6726 6.5548,-22.3672 0.2913,-0.5179 0.4532,-2.1202 0.4532,-4.6935 0,-6.7976 -1.0197,-13.8703 -2.9618,-21.299 -2.5734,-7.364 -8.2866,-11.0703 -17.0748,-11.0703 -7.6554,0 -13.757,1.6023 -18.2725,4.7421 -4.5641,3.0751 -6.6681,7.0727 -6.3929,11.8795 0.8092,19.9233 2.1202,39.9114 3.8357,60.0613 z m 121.773296,99.2928 c 1.1492,3.6415 1.7156,8.0438 1.7156,13.1905 0,7.364 -1.4242,15.7477 -4.2242,25.1186 -4.2889,11.9281 -13.0772,21.3475 -26.4295,28.3231 -13.3685,6.9594 -28.2746,10.4391 -44.7182,10.4391 -17.349996,0 -30.945096,-3.8196 -40.866296,-11.4749 -2.8646,9.646 -10.0021,14.4529 -21.299,14.4529 -6.8622,0 -12.802,-2.4601 -17.9325,-7.4288 -5.082,-4.9687 -7.8172,-10.9084 -8.1086,-17.706 -0.5664,-18.7256 -0.8577,-40.4778 -0.8577,-65.1432 0,-30.4271 -3.3665,-70.2899 -10.2126003,-119.7341 -0.5826,-4.2242 -1.667,-16.0389 -3.36639997,-35.3311 l -0.8578,-11.4749 c -0.2913,-5.1467 1.58609997,-10.342 5.76179997,-15.5858 4.1109,-5.26 8.8530003,-9.031 14.2748003,-11.2482998 2.5087,-0.8578 4.5156,-1.3272 5.9398,-1.3272 3.1398,0 6.3929,2.2983 9.8241,6.7975998 0.793,1.4242 1.926,2.8647 3.3664,4.2889 4.2728,5.1306 8.4969,7.6554 12.7859,7.6554 2.5733,0 5.6484,-0.9711 9.3547,-2.978 8.5131,-3.4312 16.217,-5.082 23.0146,-5.082 10.5038,0 20.619196,3.3664 30.265296,10.2287 9.646,6.7814 16.7187,14.728 21.299,23.8562 4.2242,8.2218 6.3929,16.7349 6.3929,25.5232 0,16.7835 -6.9756,31.1231 -20.8944,43.0512 l -1.2624,0.8577 -1.3109,1.2624 c -4.2242,3.415 -6.393,6.2149 -6.393,8.497 0,1.1491 0.7445,2.3953 2.1688,3.8357 0.5664,0.5665 2.7999,1.9908 6.7975,4.2728 5.1306,3.1398 11.7501,8.2865 20.0366,15.5373 8.2218,7.2507 14.0483,13.3037 17.4633,18.0944 3.949,5.7132 7.6553,12.1547 11.0865,19.4054 3.3664,7.2669 5.8264,13.8217 7.1859,19.8262 z"
     style="fill:#000917;fill-rule:evenodd"
     id="path1608" />
  <path
     d="m 894.15037,43.16396 c 20.2794,-19.988 45.398,-32.1427 71.4876,-36.4801998 -4.6773,26.0896998 -17.1881,50.9816998 -37.4512,70.9696998 -20.328,20.0366 -45.398,32.1427 -71.5362,36.4802 4.7259,-26.0411 17.2367,-50.9816 37.4998,-70.9697 z"
     style="fill:#000917;fill-rule:evenodd"
     id="path1610" />
  <path
     d="m 1521.3704,580.25166 c -2.1687,1.7156 -4.3375,1.7641 -7.0241,1.6023 1.7803,1.8288 2.6381,3.4797 1.7156,5.8265 -2.3954,0.3884 -4.904,0.9063 -7.4126,1.2462 -6.1178,0.8578 -12.1709,1.7155 -18.2725,2.3467 -7.8333,0.7931 -15.6505,0.9711 -23.5325,0.7931 -7.0241,-0.1619 -13.9835,-0.3399 -21.0076,-0.2266 -7.1375,0.1133 -14.2102,-0.6312 -21.2343,-1.7156 -2.7999,-0.3884 -4.4022,-1.9907 -4.8068,-4.7906 -0.1619,-1.0197 -0.3885,-2.1688 -0.049,-3.0751 0.6798,-2.0069 0.5179,-3.8358 0,-5.7779 -0.2913,-1.0197 -0.2266,-2.2821 0.049,-3.3017 1.4404,-5.26 1.4404,-10.6333 1.1491,-15.9419 -0.2914,-6.6681 -0.9711,-13.3038 -1.6023,-19.9233 -0.049,-1.0844 -0.2751,-2.282 -0.8578,-3.1884 -1.5375,-2.5248 -1.4242,-5.1952 -0.9711,-7.8819 0.2913,-1.7156 0.1133,-3.2531 -0.2751,-4.8554 -2.1688,-9.2576 -4.3375,-18.499 -6.393,-27.8052 -1.2138,-5.5999 -1.0843,-11.4264 -1.6022,-17.1234 -0.2266,-2.978 0,-5.8912 0.9063,-8.8044 0.5179,-1.4728 0.8578,-3.0266 1.2624,-4.5641 0.9064,-3.2531 1.7641,-6.5062 2.8485,-9.6461 0.7445,-2.3467 1.7156,-4.564 2.8647,-6.7328 1.2462,-2.46 2.104,-4.9201 2.1687,-7.72 0.049,-1.9908 0.2266,-3.9977 0.4532,-5.9398 0.5665,-4.4993 0.049,-8.9501 -0.4532,-13.4171 -0.5179,-4.2727 0,-8.4484 0.6151,-12.6078 0.356,-2.0555 0.2427,-3.9976 -0.4532,-6.0045 -0.5665,-1.8775 -0.7931,-3.8844 -1.0844,-5.8103 -0.6797,-4.1109 -1.1329,-8.2218 -1.9421,-12.3327 -0.7931,-4.1757 -0.7445,-8.3999 -0.5018,-12.6241 0.2266,-3.6577 0.3399,-7.364 0.2266,-11.0703 -0.1133,-2.5733 -0.7445,-5.0819 -1.0844,-7.6067 -0.5826,-3.7711 -1.1491,-7.4774 -1.667,-11.1836 -0.2266,-1.6509 -0.7445,-3.0913 -1.8774,-4.4508 -3.8843,-4.3375 -5.4219,-9.6461 -6.0531,-15.3593 -0.793,-6.8623 -0.065,-13.5951 1.3757,-20.2793 0.2266,-0.7931 0.3885,-1.6509 0.5018,-2.5086 0.5179,-3.0266 1.7803,-5.6485 3.771,-7.9305 3.949,-4.4508 7.9467,-8.853 11.8148,-13.3038 3.5444,-4.1109 7.2022,-8.1733 10.4067,-12.5107 4.5641,-6.215 7.2993,-13.2391 8.497,-20.8944 0.4531,-2.9133 0.065,-5.7618 -0.518,-8.6265 -1.5375,-7.5258 -3.3016,-14.9546 -4.6773,-22.4966 -2.104,-11.9767 -6.1016,-23.4516 -9.8727,-34.9912 -0.8577,-2.4601 -1.4889,-5.0335 -2.0554,-7.5906 -0.4046,-1.7803 -0.2913,-3.5445 0.2266,-5.3086 1.8774,-6.3444 3.8843,-12.5593 6.6195,-18.6124 3.2046,-6.9108 5.1467,-14.2263 5.3086,-21.9949 0.1133,-4.9039 0.5826,-9.8726 0.9225,-14.9546 -0.5827,-0.4046 -1.1491,-0.7931 -1.7156,-1.1977 -5.4218,-3.9328 -10.8437,-7.8172 -16.217,-11.7662 -2.5734,-1.8774 -4.6774,-4.2728 -6.2311,-7.0727 -2.6219,-4.7907 -5.4218,-9.5328 -7.5906,-14.5662 -1.3595,-3.0751 -1.8774,-6.5548 -2.5086,-9.9374 -1.1491,-6.3282 -2.0555,-12.7858 -3.1398,-19.114 -0.6798,-3.7711 -4.7907,-5.3734 -7.882,-3.0266 -2.104,1.5861 -3.4797,3.6416 -3.771,6.4415 -0.2266,2.1688 -0.8578,4.3375 -1.1976,6.571 -0.1133,0.8578 0.065,1.8288 0.2913,2.6866 0.6312,2.1688 1.0196,4.2242 0,6.393 -0.2913,0.5664 -0.1781,1.4242 -0.1781,2.104 0,4.4022 0.065,8.7397 0.1133,13.0772 0.065,1.8288 -0.4531,3.4797 -1.0843,5.1952 -0.5018,1.3757 -0.8578,2.9133 -0.9711,4.4023 -0.1133,1.3109 -0.3399,2.5733 -0.7931,3.8196 -0.793,2.3467 -1.4242,4.8068 -2.0069,7.2021 -0.6797,2.8485 -1.4728,5.5999 -3.3016,7.9952 -0.2914,0.3399 -0.5665,0.8578 -0.9226,0.9711 -2.7352,0.9064 -4.1594,3.4797 -6.7813,4.6774 -0.5827,-0.065 -0.9225,-0.5179 -1.0358,-1.2624 -0.1619,-1.5861 -0.4047,-3.1398 -0.6312,-4.6774 0,-0.3399 -0.049,-0.6797 0.065,-1.0196 0.6798,-2.0555 0.7445,-4.2242 0.793,-6.4577 0,-0.9225 0.2914,-1.9422 0.6312,-2.8485 1.489,-3.5444 1.2624,-7.2507 0.9711,-10.9084 -0.065,-1.0359 -0.6312,-2.0069 -1.1491,-2.9133 -1.1976,-2.3468 -1.3595,-4.6773 0,-7.0241 0.696,-1.1491 0.9711,-2.3954 0.9225,-3.771 -0.2913,-4.904 -0.5179,-9.8727 -0.793,-14.7928 -0.2428,-4.2242 0.048,-8.3351 1.2462,-12.3813 0.8578,-2.7999 2.282,-5.26 4.6288,-6.9756 4.0462,-2.8485 8.1571,-5.5837 12.3813,-8.157 1.4404,-0.8578 3.2045,-1.1977 4.8068,-1.6023 1.7156,-0.3884 3.1884,0.1133 4.7907,0.7445 2.5733,1.0358 5.26,1.6508 7.8819,2.4601 1.1977,0.3398 2.4601,0.6312 3.593,1.0843 0.9711,0.3399 1.7803,0.1133 2.6219,-0.4046 2.2335,-1.2624 4.5155,-2.3953 6.749,-3.6577 1.9907,-1.1329 4.1109,-1.4728 6.2797,-1.7156 0.5179,-0.049 1.1976,-0.2751 1.4728,-0.615 1.7803,-2.1202 4.1109,-2.9133 6.6842,-2.9133 1.7803,0 3.3664,-0.3398 4.8554,-1.3109 1.1977,-0.8092 2.4601,-0.9225 3.8196,-0.4694 1.489,0.5179 2.8647,0.4694 4.3537,-0.3398 0.8416,-0.4532 1.9907,-0.6312 3.0265,-0.6798 2.5572,-0.065 5.1305,0 7.7039,0 0.3884,0 0.8578,-0.065 1.1977,0 4.1594,1.1329 8.3836,0.4532 12.624,0.7931 0.793,0.065 1.6508,0.3398 2.3953,0.6312 2.5086,1.1491 4.9687,2.5733 7.8172,2.5733 0.4046,0 0.793,0.1619 1.1491,0.3399 3.7548,1.5375 7.4773,3.2531 10.8923,5.5351 1.1491,0.7445 1.7803,1.489 1.1976,2.9133 -0.2751,0.6797 -0.048,1.2624 0.5827,1.7156 4.2242,2.7999 5.6484,7.0241 6.3282,11.7662 0.5179,3.3664 -0.5665,6.2149 -2.1688,9.0148 -0.3398,0.6798 -1.0843,1.1492 -1.7155,1.6509 -1.0197,0.9225 -1.5376,2.0069 -1.0197,3.3178 0.2914,0.7931 0.1133,1.4243 -0.178,2.1202 -0.4532,1.1329 -0.9711,2.2821 -1.4728,3.415 -1.3271,3.0265 -0.6312,5.7132 1.9422,7.7039 1.1976,1.0358 2.3953,2.1202 3.7062,2.978 2.1688,1.3109 1.5376,5.1305 -0.8577,5.7131 -0.6312,0.1133 -1.2624,0.5018 -1.6023,1.0197 -0.6798,0.8092 -0.8578,1.8288 -0.3399,2.7352 0.9063,1.7155 0.8578,3.2693 -0.4532,4.7421 -0.6959,0.7445 -0.6959,1.667 -0.2266,2.5733 0.1619,0.2914 0.2266,0.6312 0.3885,0.9064 0.4046,0.9225 0.2913,1.5537 -0.6798,2.1202 -1.6508,0.9063 -1.6508,1.1976 -1.2624,3.0265 0.2913,1.5375 0.5827,3.1398 0.6312,4.6774 0.1133,1.489 -0.6312,2.6381 -1.9421,3.4311 -4.9687,2.9132 -10.3258,4.904 -15.9257,6.2797 -1.489,0.3398 -3.2046,-0.065 -4.7421,1.1491 -0.049,0.9063 -0.1619,2.0554 -0.1619,3.1398 0.1133,3.8196 0.3399,7.6391 0.4532,11.4749 0.1133,3.1884 1.9907,5.1953 4.5641,6.7328 3.0265,1.8289 6.053,3.6578 9.1443,5.5352 4.6774,2.8647 9.0148,6.1663 12.5593,10.4553 2.2173,2.7352 4.9687,4.8554 7.9305,6.7328 5.1952,3.3178 10.2772,6.7328 15.4725,10.0506 3.0913,1.9422 5.8265,4.2728 8.2865,7.0242 1.1977,1.3109 2.5086,2.5086 3.7549,3.771 3.6091,3.5283 7.8819,5.1305 12.9153,4.8392 7.5906,-0.4532 15.1327,-0.8416 22.7233,-1.3109 5.2438,-0.3885 10.5038,-0.8578 15.7476,-1.311 3.0913,-0.2751 6.1664,-0.7445 9.2577,-1.1329 0.4531,-0.065 0.9063,-0.2266 1.3109,-0.4046 1.0844,-0.518 1.3757,-1.0844 1.0358,-2.2335 -0.4693,-1.4243 -0.9711,-2.8485 -1.5537,-4.2728 -0.6798,-1.489 -0.6798,-2.9132 0,-4.4022 0.4046,-0.7445 0.6959,-1.5375 1.1491,-2.282 2.0555,-3.8196 5.5352,-5.4866 9.8727,-4.8554 1.3756,0.178 2.7999,0.2913 4.1756,0.2266 0.6797,0 1.3595,-0.3399 1.9907,-0.6798 1.8289,-1.1977 3.593,-1.4242 5.5352,-0.2913 4.5155,2.7514 9.5327,2.2335 14.4528,2.0069 1.9422,-0.1133 3.9329,-0.2266 5.8751,-0.3399 0.5179,-0.065 1.0358,-0.1133 1.5375,-0.2266 3.8843,-0.9225 7.7201,-1.7803 11.5397,-2.6866 2.978,-0.7445 5.875,-0.8093 8.7882,0 4.5156,1.1976 9.0796,1.7155 13.7084,1.6508 3.4312,0 6.7976,0.2266 10.2773,-0.4532 2.6219,-0.5179 5.4866,-0.2266 8.2865,0 3.6416,0.2266 7.2993,0.7931 10.779,2.2173 1.0358,0.4694 1.8936,0.4694 2.7514,-0.615 1.2462,-1.5537 3.1884,-1.7803 5.082,-1.667 3.6415,0.2913 7.0241,1.489 10.1639,3.4797 1.311,0.8092 2.622,1.7803 3.9815,2.5248 1.1491,0.615 1.489,1.4728 1.2138,2.6219 -0.178,0.6798 -0.2913,1.5375 -0.7445,1.9907 -1.0843,1.2139 -1.3757,2.5734 -1.3757,3.9976 0,2.5248 -1.3757,3.8843 -3.593,4.6936 -2.0554,0.6797 -4.1109,1.2462 -6.1663,1.9421 -0.9711,0.3399 -1.8936,0.6798 -2.7514,1.1977 -4.386,2.3953 -8.7235,4.9039 -13.1258,7.2993 -10.0992,5.4866 -20.6678,9.8888 -31.9161,12.5593 -3.593,0.8578 -7.4287,1.1491 -11.135,1.4404 -4.5155,0.3399 -9.0796,0.5017 -13.6437,0.1618 -6.2796,-0.5179 -12.5593,0 -18.7256,1.0359 -7.7687,1.2462 -15.4726,2.6704 -23.1765,3.8843 -3.8843,0.5664 -7.7686,0.793 -11.6044,1.3109 -2.5571,0.3399 -5.0819,0.7931 -7.5906,1.311 -0.6312,0.1133 -1.1976,0.5179 -1.7641,0.793 -1.8288,1.0359 -3.7063,1.311 -5.7617,0.9226 -1.1977,-0.2266 -2.4601,-0.2914 -3.7225,-0.2914 -6.2149,0 -12.3812,0.1133 -18.6123,0.065 -4.2728,-0.065 -8.5617,-0.5179 -12.7212,-1.6023 -1.7155,-0.4532 -3.3178,-1.1977 -4.9687,-1.8936 -4.8554,-2.0555 -9.7108,-4.1109 -14.5661,-6.1016 -0.6798,-0.2913 -1.5376,-0.3399 -2.3468,-0.3399 -1.3595,0 -1.9422,0.5665 -1.6994,1.9907 0.2266,1.9422 0.615,3.8843 0.9711,5.8265 0.6797,3.3178 1.5375,6.571 1.9259,9.8726 0.518,4.0624 0.7445,8.1733 0.9226,12.2194 0.2913,6.8623 -0.7445,13.5951 -1.6509,20.328 -0.5826,4.2242 -0.971,8.5131 -1.4404,12.7858 -0.5017,4.3375 -1.4728,8.5779 -3.2531,12.6241 -1.4728,3.4797 -3.0265,7.0241 -4.6774,10.4553 -1.9907,4.2727 -4.4508,8.2218 -7.4773,11.8147 -2.5086,2.9618 -4.6774,6.2797 -7.0241,9.3548 -0.7931,1.0843 -1.0197,2.1687 -0.9064,3.4959 0.2752,3.8195 0.5018,7.6391 0.6798,11.4749 0.2266,6.8461 -0.178,13.6922 -1.489,20.4898 -1.6508,8.3998 -2.7999,16.8967 -5.2438,25.1833 -2.1688,7.364 -4.6936,14.6794 -7.3155,21.9302 -1.9907,5.5837 -3.1884,11.2969 -2.7999,17.2366 0.3398,5.5352 -0.7445,10.7952 -3.1399,15.7639 -0.971,1.9421 -1.6508,3.9976 -2.6219,5.9883 -2.1687,4.3375 -2.8485,8.9663 -3.1398,13.757 -0.4046,6.9755 -0.8578,13.9997 -1.4242,20.9591 -0.7445,9.8241 -1.6671,19.5834 -2.5734,29.4075 -0.6798,7.5906 -1.4243,15.2459 -2.1202,22.8365 -0.5665,7.0242 -0.2266,13.9836 1.4404,20.8944 0.3399,1.4243 0.8578,2.8485 1.4243,4.289 0.9063,2.2172 2.3953,3.8681 4.386,5.1952 3.9976,2.6219 8.2866,4.6774 12.6241,6.5548 5.9883,2.6867 12.1061,5.26 18.0458,7.9952 2.9618,1.3757 5.7132,3.0913 8.497,4.6288 1.8289,1.0197 3.4959,2.2335 5.8912,1.7642 2.0555,-0.3399 3.7063,0.9225 4.3375,3.0265 0.4532,1.5537 0.5665,3.2046 0.793,4.7421 z"
     style="fill:#000917;fill-rule:evenodd"
     id="path1612" />
</svg>
