<?xml version="1.0" encoding="UTF-8" standalone="no"?>
<svg
   version="1.1"
   width="922.34521pt"
   height="536.63232pt"
   id="svg2130"
   viewBox="0 0 922.34522 536.63232"
   xmlns="http://www.w3.org/2000/svg"
   xmlns:svg="http://www.w3.org/2000/svg">
  <defs
     id="defs2134" />
  <g
     id="Layer1002"
     transform="translate(-5130.9552,-7094.7676)">
    <path
       d="m 5605.4717,7162.4557 c 0.2263,7.3605 -1.9905,12.7642 -8.3317,14.8715 5.6238,0.4359 10.1486,-8.0616 8.3317,-14.8715 z m -168.3772,119.4225 c 11.8232,-37.4809 14.6541,-59.6341 29.4141,-73.9795 16.0132,-15.5644 44.5175,-23.6187 94.0144,-28.9751 -41.5912,-0.3509 -85.3835,13.0358 -94.9508,24.4477 -13.1693,15.7067 -21.2862,41.088 -28.4777,78.5069 z m 234.4776,26.5487 c -16.972,11.0635 -34.0749,18.9552 -51.3848,21.9029 l -1.3185,2.4973 c 12.306,-2.2778 34.7715,-9.5736 52.7033,-24.4002 z m 12.2074,-36.8052 c -13.2298,11.8476 -23.9133,17.5622 -35.4497,19.9515 -11.9817,-7.5846 21.5359,-42.8899 -0.6501,-61.6402 20.6032,14.3918 -23.454,70.4656 1.0661,64.8903 9.878,-3.2626 25.311,-7.9845 35.0337,-23.2016 z m -226.3148,2.0942 c 7.7671,-23.4112 16.3902,-41.0218 25.0769,-47.8489 12.0297,0.3967 17.2525,2.8653 39.6998,-6.6561 -20.7002,6.6545 -34.4821,6.202 -40.537,3.3299 -7.5174,8.6924 -18.8802,27.1738 -24.2397,51.1751 z m -67.6482,357.49 c -14.0327,1.3529 -11.9869,-19.9025 -11.2309,-38.0867 0.9796,-23.5743 -2.5734,-27.1878 17.0215,-28.4677 3.1479,-0.2049 7.8536,-0.745 13.0473,-4.9909 -5.1926,4.2459 -11.1689,2.5202 -14.8553,2.3341 -20.6799,-1.0479 -18.6805,12.0338 -18.5773,34.0978 0.083,17.9266 -0.4989,36.6311 14.5947,35.1134 z m 274.0141,-437.0193 c 1.221,-9.9072 26.3135,-43.9868 8.8598,-76.6175 -4.335,-8.1065 -11.489,-14.2344 -20.2127,-17.5231 -26.6942,-10.0553 -64.8591,4.8027 -48.9835,53.9722 -37.7123,-81.8722 127.4867,-87.8239 60.3364,40.1684 z m -32.2471,257.6208 c -19.3473,3.2032 -37.7139,2.4446 -54.358,-5.2734 -16.9699,35.984 -44.6823,64.7563 -86.1478,84.2892 36.5367,-14.1338 66.0665,-40.1361 86.2281,-82.0031 19.1414,7.7962 36.8302,6.1644 54.2777,2.9873 z m 18.0815,101.9917 71.1288,-79.2702 c 5.4991,-4.9263 11.3659,-16.5889 11.4331,-27.3015 0.092,-14.7047 -4.41,-18.2165 -8.5902,-20.78 -37.1306,-12.3112 -75.6917,-22.6255 -100.7347,-22.9217 28.9662,4.211 63.3711,14.9815 95.7255,27.1066 15.0681,5.6405 9.0387,29.0845 1.5224,38.2712 z m -13.76,-353.4011 c 0.091,-2.7887 -0.6856,-8.3781 3.0598,-10.5146 2.7522,-1.5682 7.9459,0.8441 16.898,2.0302 -8.533,-0.4453 -13.6771,-3.0015 -16.567,-1.3441 -3.5931,2.0614 -2.9086,5.0446 -3.3908,9.8285 z m 1.3706,7.0492 c 17.1019,28.89 -2.6625,62.8315 -6.032,69.0903 -15.9502,29.6246 -23.2986,42.1474 -29.7472,99.8822 0.5631,-54.4867 22.3425,-92.1902 26.8694,-102.2419 6.0424,-13.4143 9.6825,-24.8689 11.4983,-34.4909 2.8398,-15.0435 1.2341,-25.6217 -2.5885,-32.2397 z m -135.3976,247.4257 c -1.2627,41.2649 -15.1593,41.9718 -38.7514,52.3482 -24.859,10.9249 -41.2784,29.2081 -47.7468,43.7559 9.5266,-23.8851 27.9793,-35.226 47.1905,-44.9836 22.2606,-11.3081 38.1873,-13.5661 39.3077,-51.1205 z m 27.0372,-86.9423 c 30.2581,-23.04 9.3728,-130.6951 22.9451,-147.1739 -16.6029,10.7294 3.1229,117.7677 -19.9886,136.9737 -23.0426,15.1097 -22.1469,35.1676 -19.8326,54.9111 0.038,3.625 -1.5594,11.2727 -3.8257,20.5782 1.8055,-4.043 3.3539,-8.2931 4.469,-12.87 0.6606,-2.7063 1.1835,-5.5367 1.5213,-8.5043 -0.428,-16.1498 0.2482,-31.9384 14.7115,-43.9148 z"
       style="fill:#020200;fill-rule:evenodd;stroke:#1b1918;stroke-width:0.216;stroke-linecap:butt;stroke-linejoin:miter;stroke-dasharray:none"
       id="path1465" />
    <path
       d="m 5195.6971,7297.025 h 3.6026 v 29.9484 h -5.9393 c 0,-8.1805 -2.3643,-14.0197 -7.1216,-17.4903 -4.7573,-3.4711 -11.8221,-5.1931 -21.2241,-5.1931 h -6.2776 c -0.5902,5.704 -0.9004,10.8706 -0.9004,15.4449 0,10.0365 1.8018,17.2207 5.433,21.6069 3.6312,4.3584 9.9646,6.5387 18.9724,6.5387 h 6.8396 v 5.4346 l -30.3446,0.6193 v 31.0782 c 0,8.0721 4.1666,12.2689 12.5265,12.5119 v 3.7933 h -40.3087 v -3.7933 c 4.8981,-0.054 8.1909,-0.9426 9.9364,-2.7178 1.7168,-1.7497 2.5895,-5.0321 2.5895,-9.7941 v -68.2911 c 0,-5.0857 -0.9285,-8.4218 -2.8147,-9.9562 -1.8576,-1.5604 -5.0947,-2.394 -9.7112,-2.4753 v -3.7934 h 62.4055 c 0.3942,0 0.8441,-0.3503 1.3795,-1.0766 0.5063,-0.6996 0.8441,-1.5067 0.9572,-2.395 z m 48.6967,7.265 c -4.9257,0.081 -8.2472,0.9957 -9.9646,2.7172 -1.7173,1.696 -2.5613,4.9513 -2.5613,9.7143 v 68.2911 c 0,8.0721 4.1942,12.2689 12.5259,12.5119 v 3.7933 h -40.3087 v -3.7933 c 4.9539,-0.054 8.2754,-0.9426 9.9646,-2.7178 1.7168,-1.7497 2.5614,-5.0321 2.5614,-9.7941 v -68.2911 c 0,-5.0857 -0.9291,-8.4218 -2.7866,-9.9562 -1.8863,-1.5604 -5.1233,-2.394 -9.7394,-2.4753 v -3.7934 h 40.3087 z m 22.857,37.9928 c -2.5337,-2.3138 -4.4476,-4.7891 -5.7427,-7.4261 -1.295,-2.6099 -1.942,-5.3814 -1.942,-8.2603 0,-7.5882 3.6312,-14.2073 10.8936,-19.8848 7.2619,-5.6769 15.7349,-8.5021 25.4747,-8.5021 4.8976,0 11.3999,1.3445 19.535,4.0086 v 24.7553 h -5.9955 c -0.4505,-6.8886 -2.6464,-12.5124 -6.6154,-16.8709 -3.9409,-4.3595 -8.7827,-6.5388 -14.4967,-6.5388 -4.6723,0 -8.5569,1.3722 -11.5969,4.1432 -3.04,2.7715 -4.5884,6.2431 -4.5884,10.44 0,4.0634 1.5203,7.8307 4.5316,11.3555 2.9842,3.5249 10.1621,8.9334 21.5343,16.2515 8.6414,5.517 14.4685,9.9828 17.4799,13.4003 2.9842,3.4706 4.4481,7.7227 4.4481,12.7538 0,8.2608 -3.969,15.6066 -11.9076,22.0379 -7.9376,6.4309 -16.9454,9.6596 -26.9945,9.6596 -7.2055,0 -15.2844,-1.6688 -24.2636,-4.9778 v -28.3604 h 5.8548 c 0,7.9907 2.4206,14.6645 7.2619,20.0182 4.8423,5.3548 10.5844,8.046 17.2269,8.046 6.1087,0 10.9505,-1.722 14.4972,-5.1394 3.5467,-3.4175 5.3198,-7.7494 5.3198,-12.9962 0,-4.5749 -1.4634,-8.6106 -4.3913,-12.0542 -2.8992,-3.4174 -9.5422,-8.4229 -19.8728,-14.9882 -5.6577,-3.5786 -10.8936,-7.2108 -15.6504,-10.8707 z M 5371.063,7304.29 c -4.9262,0.081 -8.2477,0.9957 -9.9651,2.7172 -1.7168,1.696 -2.5608,4.9513 -2.5608,9.7143 v 68.2911 c 0,8.0721 4.1937,12.2689 12.5259,12.5119 v 3.7933 h -40.3087 v -3.7933 c 4.9539,-0.054 8.2754,-0.9426 9.9641,-2.7178 1.7173,-1.7497 2.5619,-5.0321 2.5619,-9.7941 v -68.2911 c 0,-5.0857 -0.9291,-8.4218 -2.7872,-9.9562 -1.8857,-1.5604 -5.1227,-2.394 -9.7388,-2.4753 v -3.7934 h 40.3087 z m 70.5125,-6.0805 c 9.2326,0 17.3954,1.722 24.4889,5.1931 7.0935,3.4701 13.3142,8.8791 18.6346,16.2515 5.3485,7.3459 7.9944,16.1713 7.9944,26.4773 0,11.1934 -3.2934,21.4447 -9.937,30.7007 -6.6143,9.2832 -14.3277,16.0638 -23.1656,20.3426 -8.8113,4.2782 -18.0721,6.4308 -27.7551,6.4308 -13.8491,0 -25.615,-4.5477 -35.298,-13.6693 -9.6554,-9.122 -14.4966,-20.4499 -14.4966,-33.9575 0,-15.6061 6.0518,-29.1398 18.1278,-40.5757 12.1037,-11.4629 25.8965,-17.1935 41.4066,-17.1935 z m -10.3023,7.3187 c -10.1898,0 -18.6065,3.4169 -25.2777,10.2247 -6.6993,6.8078 -10.0208,15.7943 -10.0208,26.9876 0,16.4674 5.0101,29.5449 15.031,39.2582 10.049,9.7404 21.0271,14.5832 32.9618,14.5832 9.5146,0 17.6774,-3.4169 24.518,-10.2508 6.8683,-6.8349 10.2743,-15.6066 10.2743,-26.3162 0,-10.0365 -2.2804,-19.4541 -6.8407,-28.2519 -4.5597,-8.8264 -10.7804,-15.3918 -18.634,-19.7237 -7.8536,-4.3324 -15.2,-6.5111 -22.0119,-6.5111 z m 283.5959,-5.0316 h 52.1871 c 9.0924,0 15.7354,1.6678 19.9578,5.0039 4.2506,3.3367 6.3615,7.6957 6.3615,13.0505 0,8.5563 -4.1661,16.656 -12.4983,24.324 -8.3317,7.642 -16.8886,11.463 -25.6989,11.463 -1.9144,0 -3.9127,-0.2419 -5.996,-0.7534 -2.111,-0.4848 -4.2782,-1.2106 -6.5304,-2.1792 v 33.6072 c 0,8.0721 4.1942,12.2689 12.5264,12.5119 v 3.7933 h -40.3092 v -3.7933 c 4.9539,-0.054 8.2754,-0.9426 9.9646,-2.6641 1.7168,-1.7491 2.5619,-5.0321 2.5619,-9.8478 v -68.2911 c 0,-5.0857 -0.9296,-8.4218 -2.7871,-9.9562 -1.8863,-1.5604 -5.1228,-2.394 -9.7394,-2.4753 z m 27.7828,8.9062 v 31.4541 c 3.5185,2.5296 6.8682,4.4132 10.0208,5.678 3.1526,1.2648 6.1082,1.8831 8.8671,1.8831 5.1791,0 9.0355,-1.6406 11.6251,-4.9507 2.5895,-3.31 3.884,-8.2879 3.884,-14.9069 0,-6.8344 -1.6605,-12.5651 -4.982,-17.2208 -3.3491,-4.6546 -8.1627,-6.9959 -14.4961,-6.9959 -5.0952,0 -10.0772,1.6954 -14.9189,5.0591 z m 53.5947,-8.9062 h 40.5057 v 3.7934 c -5.0101,0.081 -8.3598,0.9957 -10.0766,2.6635 -1.6892,1.696 -2.5332,4.9784 -2.5332,9.8489 v 80.7221 h 10.7241 c 16.6358,0 26.5445,-8.3421 29.6685,-25.0509 h 5.9392 l -7.0935,32.5578 h -3.8559 c -0.057,-2.4754 -1.2387,-3.7136 -3.5467,-3.7136 h -59.7316 v -3.7933 c 4.8976,-0.054 8.2196,-0.9426 9.9369,-2.7178 1.745,-1.7497 2.6177,-5.0321 2.6177,-9.7941 v -68.2102 c 0,-5.0858 -0.9295,-8.4225 -2.8153,-10.0094 -1.8575,-1.561 -5.0946,-2.4217 -9.7393,-2.503 z m 147.8934,0 h 36.3677 v 3.7934 c -10.2742,1.453 -15.4257,17.8932 -15.4257,49.267 0,10.8712 -0.2252,18.6205 -0.7033,23.2751 -0.4504,4.6557 -2.1114,9.0142 -4.9825,13.1041 -2.8705,4.0634 -7.2342,7.373 -13.1172,9.8749 -5.8829,2.5291 -12.9482,3.7944 -21.1959,3.7944 -8.6133,0 -15.9883,-1.2116 -22.0401,-3.6333 -6.08,-2.4216 -10.7247,-5.8918 -13.9617,-10.44 -3.209,-4.5467 -4.8137,-10.1163 -4.8137,-16.7624 v -55.9674 c 0,-5.1395 -0.9572,-8.5027 -2.8424,-10.0371 -1.8862,-1.5604 -5.1238,-2.394 -9.684,-2.4753 v -3.7934 h 40.3092 v 3.7934 c -4.8976,0.081 -8.1915,0.9957 -9.9364,2.7172 -1.7174,1.696 -2.5901,4.9784 -2.5901,9.7952 v 55.348 c 0,5.2469 0.8451,9.6064 2.5619,13.0499 1.6892,3.4446 4.8413,6.5388 9.4302,9.3097 4.5879,2.7455 10.3018,4.1177 17.1138,4.1177 6.812,0 12.5823,-1.1845 17.2833,-3.5249 4.701,-2.368 8.1069,-5.9204 10.2179,-10.6022 2.1115,-4.7083 3.1807,-11.7845 3.1807,-21.2569 0,-20.7722 -1.1255,-35.6515 -3.4336,-44.6927 -2.2803,-9.0408 -6.1931,-13.8038 -11.7381,-14.261 z m 56.2405,41.7862 c -2.5332,-2.3138 -4.4471,-4.7891 -5.7426,-7.4261 -1.2945,-2.6099 -1.942,-5.3814 -1.942,-8.2603 0,-7.5882 3.6312,-14.2073 10.8936,-19.8848 7.2618,-5.6769 15.7348,-8.5021 25.4747,-8.5021 4.8975,0 11.3998,1.3445 19.5349,4.0086 v 24.7553 h -5.9955 c -0.4504,-6.8886 -2.6464,-12.5124 -6.6149,-16.8709 -3.9414,-4.3595 -8.7826,-6.5388 -14.4971,-6.5388 -4.6724,0 -8.5564,1.3722 -11.5964,4.1432 -3.0405,2.7715 -4.5889,6.2431 -4.5889,10.44 0,4.0634 1.5202,7.8307 4.5321,11.3555 2.9836,3.5249 10.1616,8.9334 21.5338,16.2515 8.6413,5.517 14.4685,9.9828 17.4803,13.4003 2.9837,3.4706 4.4476,7.7227 4.4476,12.7538 0,8.2608 -3.969,15.6066 -11.9071,22.0379 -7.938,6.4309 -16.9459,9.6596 -26.9949,9.6596 -7.2056,0 -15.2839,-1.6688 -24.2636,-4.9778 v -28.3604 h 5.8547 c 0,7.9907 2.4206,14.6645 7.2624,20.0182 4.8418,5.3548 10.5839,8.046 17.227,8.046 6.1081,0 10.9499,-1.722 14.4966,-5.1394 3.5468,-3.4175 5.3199,-7.7494 5.3199,-12.9962 0,-4.5749 -1.4635,-8.6106 -4.3914,-12.0542 -2.8992,-3.4174 -9.5422,-8.4229 -19.8722,-14.9882 -5.6582,-3.5786 -10.8942,-7.2108 -15.651,-10.8707 z"
       style="fill:#020200;fill-rule:evenodd"
       id="path1467" />
  </g>
</svg>
