<?xml version="1.0" encoding="UTF-8" standalone="no"?>
<svg
   version="1.1"
   width="6637.5234pt"
   height="2496.5996pt"
   id="svg2130"
   viewBox="0 0 6637.5235 2496.5996"
   xmlns="http://www.w3.org/2000/svg"
   xmlns:svg="http://www.w3.org/2000/svg">
  <defs
     id="defs2134" />
  <g
     id="Layer1000"
     transform="translate(-1449.9573,-4282.4277)">
    <path
       d="m 2109.8735,5274.5742 c 527.6164,-1196.1299 1272.207,-976.2585 1266.2997,-976.2585 202.2625,38.1297 281.3935,527.7112 -35.1705,791.5758 2.9445,-164.1947 -363.4654,-803.2884 -1231.1292,184.6827 z"
       style="fill:#000917;fill-rule:evenodd"
       id="path1119" />
    <path
       d="m 2573.0124,4462.4996 c -1081.6426,378.1589 -1037.6712,1366.1628 -1034.7449,1374.9563 0,64.5067 99.6517,545.2873 583.3368,284.3708 -8.7936,-8.7935 -768.0195,-313.6632 451.4081,-1659.3271 z"
       style="fill:#000917;fill-rule:evenodd"
       id="path1121" />
    <path
       d="M 3296.0838,5170.1996 C 2820.8132,6549.0662 2113.7837,6798.4341 1747.0641,6777.8988 1283.528,6736.8246 1494.7553,6094.3309 1518.2278,6056.194 c 49.8751,176.024 442.9972,891.8616 1777.856,-885.9944 z"
       style="fill:#000917;fill-rule:evenodd"
       id="path1123" />
    <path
       d="m 3661.9215,5143.7534 c 15.1018,-80.5851 30.8011,-161.0535 46.1434,-241.6166 282.6398,-0.047 565.2541,0.073 847.8975,-0.047 -11.2643,80.5631 -21.9529,161.1737 -33.2828,241.7113 -97.3449,-0.215 -194.6898,-0.073 -292.0347,-0.073 -46.2417,260.1912 -91.9878,520.4773 -138.4919,780.5993 -98.0264,-0.073 -196.0564,0.022 -294.0864,-0.047 42.4226,-260.2168 85.7307,-520.3134 128.1059,-780.552 -88.0921,-0.022 -176.1588,-0.069 -264.251,0.025 z"
       style="fill:#000917;fill-rule:evenodd"
       id="path1125" />
    <path
       d="m 4834.9652,4904.8517 c 88.4712,-0.022 176.9387,-0.069 265.4281,0.025 -11.1623,79.4736 -21.9274,158.9981 -33.3265,238.4498 -90.3371,-0.022 -180.6704,-0.047 -271.0001,0 12.8605,-79.4991 26.1729,-158.9289 38.8985,-238.4753 z"
       style="fill:#000917;fill-rule:evenodd"
       id="path1127" />
    <path
       d="m 6351.5403,4902.964 c 88.5113,-0.2842 177.0553,-0.047 265.5702,-0.1166 -53.4901,340.5176 -107.6836,680.9404 -161.3851,1021.4325 -87.4544,0.047 -174.8833,0.047 -262.3341,0 52.6848,-340.4484 105.6756,-680.8457 158.149,-1021.3159 z"
       style="fill:#000917;fill-rule:evenodd"
       id="path1129" />
    <path
       d="m 5897.3262,5041.2373 c 90.9018,-16.3553 181.6361,-33.516 272.5124,-49.9916 -10.1455,63.9891 -20.0652,128.0038 -30.2836,191.9966 50.1338,0.4956 100.2493,-0.022 150.3868,0.2369 -11.4029,65.5489 -21.9748,131.2181 -33.4031,196.767 -45.5348,-0.1203 -91.0914,0.1421 -136.6225,-0.1421 -15.1527,84.1272 -29.1247,168.4876 -43.596,252.7534 -3.8447,22.5213 -7.0553,46.8794 2.4307,68.4788 6.6835,15.6739 23.0644,25.3493 39.7513,26.3187 29.3143,2.1938 57.8742,-8.0027 84.171,-19.9449 -12.1317,66.2814 -24.0738,132.5847 -35.9285,198.9134 -56.6461,22.3064 -116.8379,36.8943 -177.8316,38.8986 -42.3679,0.758 -86.8385,-5.4262 -123.0003,-29.0081 -30.054,-19.2379 -50.9173,-50.3962 -61.6823,-84.0325 -14.3292,-44.682 -15.4808,-92.4579 -11.7746,-138.8892 3.6807,-47.4188 12.6273,-94.1817 20.1818,-141.0575 9.5552,-57.0068 19.1869,-113.9881 29.0774,-170.8965 -16.7817,-1.6545 -33.6582,-2.1027 -50.4217,-3.7062 11.2826,-67.1779 22.8494,-134.3339 33.9716,-201.5336 16.5667,-0.1203 33.1589,0.022 49.7548,-0.095 7.2921,-45.0391 14.5879,-90.1001 22.3064,-135.0664 z"
       style="fill:#000917;fill-rule:evenodd"
       id="path1131" />
    <path
       d="m 5236.5019,5170.7098 c 39.8425,-13.5967 82.4691,-18.5528 124.4362,-15.6994 39.3286,2.2449 79.9291,9.6791 113.4706,31.4425 21.5047,14.0449 39.2995,35.6917 43.8329,61.4892 4.5517,-24.1248 8.2579,-48.3882 12.8132,-72.513 90.337,0.095 180.6485,0.025 270.9818,0.025 -40.7425,249.6376 -81.3394,499.3007 -122.4391,748.8726 -89.2437,-0.073 -178.4729,0.022 -267.6947,-0.047 3.3527,-22.638 6.658,-45.2724 9.9852,-67.9104 -48.3919,36.61 -102.5853,67.4147 -162.001,81.6236 -31.8871,7.7914 -65.1225,6.986 -97.5271,3.4001 -41.8978,-5.0983 -85.0237,-18.0353 -116.5172,-47.4225 -17.6308,-15.9799 -27.944,-37.9802 -36.7995,-59.6233 -17.3247,-42.9146 -15.8087,-90.4063 -10.1929,-135.5147 16.4027,-115.187 33.0204,-230.4725 55.5637,-344.672 8.4254,-38.3556 30.4293,-72.3709 56.4383,-101.2369 34.1064,-37.3425 77.7789,-65.8587 125.6496,-82.214 z m 142.3768,178.4729 v 0 c -22.8749,4.0123 -45.1048,16.5922 -56.8647,37.1275 -11.2352,20.0652 -13.757,43.2899 -18.9063,65.3375 -12.9116,60.0024 -24.974,120.289 -31.7195,181.3045 -2.2922,20.7977 -3.8993,42.5137 3.1596,62.6007 5.0545,14.8248 15.7941,27.8748 30.2144,34.4162 21.8107,10.0545 47.0216,9.0851 70.0349,4.0123 25.2327,-5.8563 50.3233,-19.0266 64.5541,-41.4277 7.5581,-14.1834 10.5318,-30.2362 14.4494,-45.6732 13.2213,-59.2225 22.1387,-119.2978 30.8302,-179.322 3.1158,-25.2109 8.7097,-51.504 0.5394,-76.3614 -5.3352,-17.4194 -19.7773,-30.9213 -36.6101,-37.2477 -22.1205,-8.3308 -46.5915,-8.072 -69.6814,-4.7667 z"
       style="fill:#000917;fill-rule:evenodd"
       id="path1133" />
    <path
       d="m 6858.6105,5163.2027 c 56.2233,-8.3781 113.4633,-9.2783 170.0693,-4.2966 51.0302,4.9562 102.3265,15.9326 148.1601,39.6311 34.6312,17.9406 65.6473,44.19 85.523,78.0596 23.6037,39.4452 30.823,87.2212 24.9521,132.4461 -15.0143,83.8175 -27.5468,168.1342 -41.2163,252.2141 -3.7573,21.9492 -6.0641,44.2338 -12.3431,65.6655 -7.9809,25.8705 -20.4004,50.3014 -36.1617,72.2543 -41.497,58.0418 -104.9942,97.0351 -171.9643,119.1083 -56.9085,19.2124 -117.053,26.1984 -176.7711,28.7494 h -36.9198 c -41.752,-2.1246 -83.7701,-5.3097 -124.3924,-15.9326 -45.6951,-11.6361 -90.8253,-31.8907 -123.6854,-66.613 -24.0338,-25.0906 -39.704,-57.7138 -45.1084,-91.9624 -4.1289,-25.2108 -3.2616,-51.0558 1.035,-76.1718 13.9501,-94.2291 27.8092,-188.4582 41.7119,-282.6872 9.6318,-61.9593 42.7214,-119.2723 89.4624,-160.7437 57.4514,-51.176 132.4462,-78.3912 207.6487,-89.7211 z m 48.6214,162.5148 v 0 c -24.3107,3.8483 -45.3926,19.759 -58.1146,40.4838 -20.4369,32.7143 -28.3012,71.4015 -33.6108,109.0975 -9.2309,67.5788 -18.6257,135.1138 -27.7837,202.6925 -2.336,22.8494 -1.7456,46.8795 7.6456,68.2384 7.1573,16.6906 20.2765,30.9469 36.9453,38.4285 19.3327,9.0887 41.5443,7.744 62.1525,4.7922 23.9827,-3.6334 44.8933,-19.1651 57.2837,-39.7477 21.4828,-35.1013 28.4688,-76.6457 34.1356,-116.7724 9.8394,-67.7463 19.6607,-135.4672 29.5001,-203.1881 2.6967,-15.5791 3.3053,-31.7012 -0.7288,-47.1127 -5.1676,-21.3151 -19.3109,-40.5057 -38.9241,-50.6075 -20.8925,-11.4502 -45.7935,-9.0159 -68.5008,-6.3045 z"
       style="fill:#000917;fill-rule:evenodd"
       id="path1135" />
    <path
       d="m 7717.5974,5178.8984 c 48.862,-18.3159 101.7362,-24.7371 153.7103,-22.1169 42.3242,2.3615 85.9712,15.2949 117.2425,45.1084 31.1145,28.917 47.4224,70.7201 51.7919,112.3591 3.5349,26.0563 -2.3141,52.0215 -5.1749,77.8446 -24.8792,177.693 -52.59,354.9888 -80.2971,532.2555 -91.259,-0.164 -182.5362,0.073 -273.7879,-0.095 9.6062,-59.3865 18.9063,-118.7986 28.323,-178.1887 2.806,-20.466 7.2265,-40.6916 8.9466,-61.2997 8.779,-58.2787 17.4413,-116.6047 25.9178,-174.9344 5.0035,-27.995 7.1719,-56.5549 13.3124,-84.2912 0.3316,-17.2044 -3.728,-36.7048 -18.4617,-47.4188 -16.9712,-12.4633 -39.1063,-12.0406 -59.1751,-11.7782 -21.7379,-0.9001 -44.2812,4.6719 -61.4893,18.3633 -13.6185,10.408 -22.8967,25.302 -29.9556,40.6952 -4.6027,7.1282 -4.763,15.765 -6.279,23.837 -9.107,54.2226 -18.1009,108.4634 -27.3099,162.6605 -5.8308,29.3617 -8.8738,59.2481 -15.5536,88.4457 -12.3212,74.6121 -24.595,149.2279 -36.6101,223.8874 -91.5578,0.1895 -183.101,0.022 -274.6334,0.069 9.814,-57.4769 19.187,-115.023 28.8405,-172.5218 3.6625,-23.4179 8.4292,-46.7155 11.0275,-70.2974 28.8405,-168.2982 56.7918,-336.6911 84.7395,-505.1569 91.1788,0.047 182.3868,-0.3061 273.5729,0.1895 -4.0123,23.3705 -7.8643,46.7373 -11.9203,70.0823 27.9914,-30.8266 64.4629,-53.0164 103.223,-67.699 z"
       style="fill:#000917;fill-rule:evenodd"
       id="path1137" />
    <path
       d="m 4252.1022,5168.1588 c 88.606,-0.3061 177.2229,-0.069 265.8326,-0.1166 -8.5676,43.7163 -17.2774,87.3815 -25.7101,131.1197 10.131,-11.6579 19.7845,-23.7677 30.4767,-34.9337 48.9312,-52.3786 116.8671,-88.4201 188.9501,-93.0702 19.4092,-2.1501 38.782,1.1553 58.2131,0.871 -13.6659,81.6273 -27.3865,163.2728 -40.6734,244.9693 -57.2837,3.3746 -116.3714,4.2966 -170.4701,25.7976 -38.0495,14.7519 -70.414,42.9619 -90.9201,78.1543 -25.0031,41.9926 -35.0102,90.5229 -45.3489,137.6866 -14.6353,88.657 -29.3361,177.3395 -43.811,266.0184 -87.1483,0.051 -174.2893,-0.069 -261.4376,0.073 44.8933,-252.214 90.122,-504.3552 134.8987,-756.5693 z"
       style="fill:#000917;fill-rule:evenodd"
       id="path1139" />
    <path
       d="m 4793.093,5170.8045 c 88.3691,-0.1421 176.72,0.047 265.0964,-0.095 -39.6748,251.077 -80.206,501.9938 -120.0521,753.0489 -90.45,0.1677 -180.9,0.047 -271.3573,0.073 42.1821,-251.0114 84.1528,-502.0192 126.313,-753.0271 z"
       style="fill:#000917;fill-rule:evenodd"
       id="path1141" />
    <path
       d="m 3789.9473,6001.7892 v 424.386 h 169.129 c 84.8743,0 137.9235,-36.8214 137.9235,-121.6993 0,-54.9187 -18.7204,-81.1317 -54.9223,-96.7363 33.7019,-21.2167 46.8102,-45.5566 46.8102,-93.6132 0,-81.1316 -46.8102,-112.3372 -132.3113,-112.3372 z m 164.7632,247.1412 c 34.3215,0 54.9187,16.2278 54.9187,51.1761 0,41.8139 -19.3473,52.426 -54.9187,52.426 h -78.6426 v -103.6021 z m -2.4999,-173.4985 c 32.4556,0 49.3029,14.9778 49.3029,49.9297 0,33.6983 -14.9742,51.176 -48.6761,51.176 h -76.7695 v -101.1057 z"
       style="fill:#000917;fill-rule:evenodd"
       id="path1143" />
    <path
       d="m 4176.2583,6426.1752 h 274.6043 v -74.8927 h -188.48 v -101.7253 h 151.0318 v -73.6464 h -151.0318 v -99.2289 h 188.48 v -74.8927 h -274.6043 z"
       style="fill:#000917;fill-rule:evenodd"
       id="path1145" />
    <path
       d="m 4528.2516,6426.1752 h 86.1206 v -349.4933 h 6.2463 l 106.0947,349.4933 h 141.6697 v -424.386 h -86.1243 v 349.4933 h -6.2389 l -102.3521,-349.4933 h -145.416 z"
       style="fill:#000917;fill-rule:evenodd"
       id="path1147" />
    <path
       d="m 4931.4173,6426.1752 h 86.1279 l 16.851,-76.7622 h 148.5318 l 16.851,76.7622 h 86.1279 l -95.49,-424.386 h -163.5096 z m 162.267,-353.2396 h 29.9556 l 43.064,201.5847 h -116.0836 z"
       style="fill:#000917;fill-rule:evenodd"
       id="path1149" />
    <path
       d="m 5590.4668,6426.1752 v -76.139 h -155.4013 v -348.247 h -86.1242 v 424.386 z"
       style="fill:#000917;fill-rule:evenodd"
       id="path1151" />
    <path
       d="m 5649.7549,6426.1752 h 86.1242 v -328.2766 h 9.3621 l 83.0048,309.5525 h 86.1243 l 83.0048,-309.5525 h 9.362 v 328.2766 h 86.1279 v -424.386 h -146.666 l -74.8891,309.5524 -74.8927,-309.5524 h -146.6623 z"
       style="fill:#000917;fill-rule:evenodd"
       id="path1153" />
    <path
       d="m 6155.8958,6426.1752 h 86.1279 l 16.8473,-76.7622 h 148.5391 l 16.8437,76.7622 h 86.1279 l -95.4827,-424.386 h -163.5169 z m 162.2633,-353.2396 h 29.9593 l 43.0639,201.5847 h -116.0872 z"
       style="fill:#000917;fill-rule:evenodd"
       id="path1155" />
    <path
       d="m 6716.3358,6426.1752 c 152.2818,0 180.3643,-75.5159 180.3643,-220.3051 0,-141.0466 -32.452,-204.0809 -180.3643,-204.0809 h -142.9197 v 424.386 z m 91.7437,-220.3051 c 0,94.2364 -8.1121,145.4124 -91.7437,145.4124 h -56.7954 v -274.6006 h 56.7954 c 83.6316,0 91.7437,36.1946 91.7437,129.1882 z"
       style="fill:#000917;fill-rule:evenodd"
       id="path1157" />
    <path
       d="m 6977.8354,6426.1752 h 274.6006 v -74.8927 h -188.48 v -101.7253 h 151.0318 v -73.6464 H 7063.956 v -99.2289 h 188.48 v -74.8927 h -274.6006 z"
       style="fill:#000917;fill-rule:evenodd"
       id="path1159" />
    <path
       d="m 7329.825,6426.1752 h 86.1243 v -349.4933 h 6.2426 l 106.0947,349.4933 h 141.6697 v -424.386 h -86.1279 v 349.4933 h -6.2389 L 7475.241,6001.7892 h -145.416 z"
       style="fill:#000917;fill-rule:evenodd"
       id="path1161" />
    <path
       d="m 7732.987,6426.1752 h 86.128 l 16.8546,-76.7622 h 148.5318 l 16.851,76.7622 h 86.1279 l -95.49,-424.386 h -163.5096 z m 162.2707,-353.2396 h 29.952 l 43.0639,201.5847 h -116.0799 z"
       style="fill:#000917;fill-rule:evenodd"
       id="path1163" />
    <path
       d="m 6855.8445,5016.6715 30.2946,71.6311 306.0977,-65.3156 -57.9762,-95.6576 z"
       style="fill:#000917;fill-rule:evenodd;stroke:#000917;stroke-width:0.216;stroke-linecap:butt;stroke-linejoin:miter;stroke-dasharray:none"
       id="path1165" />
    <path
       d="m 3874.8689,4695.7053 v 55.0389 c 0,27.5176 -12.1134,37.4263 -31.3769,37.4263 -19.2634,0 -31.3696,-9.9087 -31.3696,-37.4263 v -208.0495 c 0,-27.5213 12.1062,-37.9766 31.3696,-37.9766 19.2635,0 31.3769,10.4553 31.3769,37.9766 v 41.2782 h 57.2364 v -37.4263 c 0,-61.6459 -30.8156,-96.8711 -90.2641,-96.8711 -59.4412,0 -90.2605,35.2252 -90.2605,96.8711 v 200.3456 c 0,61.6423 30.8193,96.8675 90.2605,96.8675 59.4485,0 90.2641,-35.2252 90.2641,-96.8675 v -51.1869 z"
       style="fill:#000917;fill-rule:evenodd"
       id="path1167" />
    <path
       d="m 3968.9814,4839.3575 h 160.1715 v -55.0389 h -99.6225 v -330.2372 h -60.549 z"
       style="fill:#000917;fill-rule:evenodd"
       id="path1169" />
    <path
       d="m 4152.8186,4454.0814 v 293.3611 c 0,61.6423 30.8193,96.8675 90.2605,96.8675 59.4484,0 90.2677,-35.2252 90.2677,-96.8675 v -293.3611 h -57.24 v 297.2131 c 0,27.5176 -12.1098,37.4263 -31.3769,37.4263 -19.2634,0 -31.3659,-9.9087 -31.3659,-37.4263 v -297.2131 z"
       style="fill:#000917;fill-rule:evenodd"
       id="path1171" />
    <path
       d="m 4465.9971,4454.0814 h -91.372 v 385.2761 h 95.224 c 60.5417,0 91.9113,-31.9235 91.9113,-91.3647 v -31.3733 c 0,-40.7316 -12.6565,-69.9001 -45.1303,-82.5602 26.9674,-12.66 39.0808,-37.9766 39.0808,-77.604 v -13.7606 c 0,-59.4449 -26.971,-88.6133 -89.7138,-88.6133 z m -3.8556,211.9015 c 27.5213,0 39.0772,11.0092 39.0772,46.7847 v 33.5743 c 0,28.6182 -11.0056,37.9767 -31.3696,37.9767 h -34.6786 v -118.3357 z m 2.2011,-156.8626 c 21.4682,0 30.8193,12.1098 30.8193,39.6274 v 21.4646 c 0,30.823 -13.7606,40.7316 -36.3257,40.7316 h -23.6657 v -101.8236 z"
       style="fill:#000917;fill-rule:evenodd"
       id="path1173" />
  </g>
</svg>
