<?xml version="1.0" encoding="UTF-8" standalone="no"?>
<svg
   version="1.1"
   width="2103.5371pt"
   height="2496.5996pt"
   id="svg2130"
   viewBox="0 0 2103.5371 2496.5996"
   xmlns="http://www.w3.org/2000/svg"
   xmlns:svg="http://www.w3.org/2000/svg">
  <defs
     id="defs2134" />
  <path
     d="M 659.91619,992.14646 C 1187.5326,-203.98344 1932.1232,15.88796 1926.2159,15.88796 c 202.2625,38.1297 281.3935,527.7112 -35.1705,791.5758 C 1893.9899,643.26906 1527.58,4.1753605 659.91619,992.14646 Z"
     style="fill:#e95010;fill-rule:evenodd"
     id="path1119" />
  <path
     d="M 1123.0551,180.07186 C 41.412494,558.23076 85.383894,1546.2347 88.310194,1555.0282 c 0,64.5067 99.651696,545.2873 583.336796,284.3708 -8.7936,-8.7935 -768.019496,-313.6632 451.40811,-1659.32714 z"
     style="fill:#e95010;fill-rule:evenodd"
     id="path1121" />
  <path
     d="M 1846.1265,887.77186 C 1370.8559,2266.6385 663.82639,2516.0064 297.10679,2495.4711 -166.42931,2454.3969 44.797994,1811.9032 68.270494,1773.7663 118.14559,1949.7903 511.26769,2665.6279 1846.1265,887.77186 Z"
     style="fill:#e95010;fill-rule:evenodd"
     id="path1123" />
</svg>
