<?xml version="1.0" encoding="UTF-8" standalone="no"?>
<svg
   version="1.1"
   width="762.39355pt"
   height="762.23706pt"
   id="svg2130"
   viewBox="0 0 762.39356 762.23706"
   sodipodi:docname="Carpa logos OK.cdr"
   xmlns:inkscape="http://www.inkscape.org/namespaces/inkscape"
   xmlns:sodipodi="http://sodipodi.sourceforge.net/DTD/sodipodi-0.dtd"
   xmlns="http://www.w3.org/2000/svg"
   xmlns:svg="http://www.w3.org/2000/svg">
  <defs
     id="defs2134" />
  <sodipodi:namedview
     id="namedview2132"
     pagecolor="#ffffff"
     bordercolor="#000000"
     borderopacity="0.25"
     inkscape:showpageshadow="2"
     inkscape:pageopacity="0.0"
     inkscape:pagecheckerboard="0"
     inkscape:deskcolor="#d1d1d1"
     showgrid="false"
     inkscape:document-units="pt" />
  <g
     id="Layer1050"
     inkscape:export-filename="../2acd3cf6/puerto_deportivo_benalmadena.svg"
     inkscape:export-xdpi="96"
     inkscape:export-ydpi="96"
     transform="translate(-3214.0855,-3245.9187)">
    <path
       d="m 3387.0747,3857.8614 c 2.2891,0.1294 4.617,-1.0605 6.9838,-3.6083 4.1515,-4.4231 3.8799,-8.8591 -0.8277,-13.2305 -0.4915,-0.4526 -1.0864,-0.957 -1.6813,-1.5131 -0.5949,-0.4915 -1.4614,-0.9959 -2.5996,-1.5003 l -12.2734,13.1917 2.0563,1.9141 c 3.2333,3.0522 6.0656,4.6042 8.3419,4.7464 z"
       style="fill:#00070d;fill-rule:evenodd"
       id="path2091" />
    <path
       d="m 3317.5595,3447.1985 c -3.5048,-2.1468 -6.4794,-3.0134 -8.8979,-2.6512 -2.4185,0.375 -4.6429,2.1468 -6.6088,5.3413 -1.0087,1.6425 -1.5519,3.0651 -1.733,4.2938 l 19.5677,11.9113 1.1381,-1.6942 c 2.4185,-4.0093 3.3755,-7.2943 2.8323,-9.9455 -0.5431,-2.5996 -2.6383,-5.018 -6.2984,-7.2555 z"
       style="fill:#00070d;fill-rule:evenodd"
       id="path2093" />
    <path
       d="m 3761.2664,3351.9596 c 2.7806,-0.9182 5.1603,-3.0651 7.1132,-6.4794 2.1468,-3.6084 3.0134,-6.6606 2.6512,-9.1308 -0.3621,-2.4573 -2.1857,-4.6429 -5.5612,-6.6088 -1.3321,-0.7759 -2.7418,-1.2803 -4.2032,-1.4614 l -11.7303,20.1626 c 0.5044,0.5949 1.3709,1.2287 2.5996,1.9658 3.3367,1.9141 6.3501,2.4573 9.1307,1.552 z"
       style="fill:#00070d;fill-rule:evenodd"
       id="path2095" />
    <path
       d="m 3484.4346,3934.7484 13.5538,4.5136 1.1381,-20.5765 c 0.1294,-2.0046 0.2716,-3.5565 0.4527,-4.5653 0.1811,-1.0476 0.3621,-2.0046 0.5432,-2.8712 -0.3621,0.7243 -0.776,1.4615 -1.1769,2.0952 -0.4139,0.6337 -1.3321,2.0951 -2.8324,4.3326 z"
       style="fill:#00070d;fill-rule:evenodd"
       id="path2097" />
    <path
       d="m 3371.9301,3856.2448 -13.3728,14.3686 c 0.3751,0.6467 0.776,1.3321 1.3321,2.0564 0.5432,0.776 1.2286,1.5002 2.0952,2.3279 2.5995,2.4185 5.018,3.6989 7.2942,3.7894 2.2891,0.1293 4.6559,-1.0993 7.0356,-3.6471 2.5478,-2.7935 3.7376,-5.4836 3.466,-8.0314 -0.2328,-2.5996 -2.1986,-5.5742 -5.7552,-8.9497 z"
       style="fill:#00070d;fill-rule:evenodd"
       id="path2099" />
    <path
       d="m 3421.9292,3356.5379 c 0.4139,-2.8711 -0.4656,-5.9751 -2.6513,-9.2601 -2.3279,-3.5048 -4.6947,-5.6129 -7.0743,-6.3889 -2.328,-0.776 -5.1474,-0.039 -8.3936,2.1081 -1.2804,0.8665 -2.3279,1.8624 -3.1427,3.1039 l 12.9589,19.4255 c 0.7242,-0.1811 1.6813,-0.6855 2.8711,-1.5003 3.1945,-2.0951 5.018,-4.6041 5.4319,-7.4882 z"
       style="fill:#00070d;fill-rule:evenodd"
       id="path2101" />
    <path
       d="m 3569.3659,3332.3402 c 4.5654,-0.3621 7.6693,-2.328 9.3635,-6.0139 1.6813,-3.66 2.1857,-9.5834 1.5908,-17.8476 -0.6337,-7.9797 -2.0564,-13.5926 -4.2809,-16.9293 -2.2374,-3.3238 -5.6646,-4.837 -10.2688,-4.4619 -1.733,0.09 -3.1557,0.4526 -4.2032,0.957 l 3.3367,43.9853 c 1.3192,0.3104 2.8194,0.4526 4.4619,0.3104 z"
       style="fill:#00070d;fill-rule:evenodd"
       id="path2103" />
    <path
       d="m 3700.3259,3349.7481 c 3.466,1.3321 6.57,0.2845 9.3118,-3.091 2.7418,-3.4273 5.2896,-8.1737 7.6175,-14.3816 2.3797,-6.1561 3.6084,-11.4457 3.7894,-15.83 0.1293,-4.3326 -1.4614,-7.1649 -4.8887,-8.4841 -3.4143,-1.2804 -6.5182,-0.2328 -9.2988,3.2333 -2.7806,3.4272 -5.3414,8.1736 -7.6176,14.2392 -2.3279,6.2079 -3.6083,11.4587 -3.8411,15.8301 -0.1811,4.3326 1.4614,7.1649 4.9275,8.4841 z"
       style="fill:#00070d;fill-rule:evenodd"
       id="path2105" />
    <path
       d="m 3497.5875,3340.3975 c 2.509,3.5566 5.5612,4.7464 9.1178,3.6471 3.5178,-1.0864 5.3413,-3.8282 5.3801,-8.1608 0.052,-4.3843 -0.9053,-9.7127 -2.8711,-16.0111 -1.9658,-6.3501 -4.242,-11.2259 -6.8028,-14.7824 -2.5478,-3.5178 -5.5612,-4.7465 -9.079,-3.6472 -3.466,1.0476 -5.2378,3.8282 -5.2896,8.2513 -0.09,4.4231 0.8277,9.7127 2.7806,15.9206 1.9658,6.2984 4.2033,11.2259 6.764,14.7825 z"
       style="fill:#00070d;fill-rule:evenodd"
       id="path2107" />
    <path
       d="m 3665.6265,3313.1734 c 2.2892,-1.4097 3.8411,-4.1903 4.7077,-8.3935 0.8147,-4.0093 0.6337,-7.1132 -0.5562,-9.2601 -1.1769,-2.1857 -3.5954,-3.6471 -7.2942,-4.3843 -1.8753,-0.4009 -3.4273,-0.4526 -4.6042,-0.1811 l -4.5265,22.4518 1.9658,0.5044 c 4.6042,0.9053 8.0314,0.6854 10.3076,-0.7372 z"
       style="fill:#00070d;fill-rule:evenodd"
       id="path2109" />
    <path
       d="m 3638.4283,3926.4842 c -0.2716,-1.0088 -0.5431,-1.9141 -0.8147,-2.7806 0,0.8147 0,1.5907 -0.091,2.3667 -0.091,0.776 -0.2845,2.4702 -0.5949,5.1603 l -2.8323,20.4859 14.1487,-2.0046 -8.1737,-18.934 c -0.8147,-1.8753 -1.3709,-3.285 -1.6425,-4.2937 z"
       style="fill:#00070d;fill-rule:evenodd"
       id="path2111" />
    <path
       d="m 3442.6479,3789.8078 c 60.3715,-0.052 120.6783,-0.052 181.0497,0.039 -0.09,-137.6981 -0.052,-275.3445 -0.052,-412.9909 -60.5008,137.5559 -120.6265,275.2928 -180.998,412.9521 z"
       style="fill:#00070d;fill-rule:evenodd"
       id="path2113" />
    <path
       d="m 3798.1902,3857.4088 9.0273,18.6106 10.6309,-9.5316 -17.2914,-11.2259 c -1.6813,-1.0993 -2.91,-1.9658 -3.7377,-2.6513 -0.8148,-0.6854 -1.552,-1.3191 -2.2374,-1.8623 0.4656,0.6725 0.9182,1.3579 1.2416,2.0434 0.3621,0.6466 1.1381,2.1986 2.3667,4.6171 z"
       style="fill:#00070d;fill-rule:evenodd"
       id="path2115" />
    <path
       d="m 3689.488,3912.6846 c -2.7806,-2.6383 -6.2855,-3.3238 -10.5404,-2.0046 -1.5908,0.5044 -2.8194,1.0993 -3.7377,1.7847 l 12.4157,40.4158 c 1.3192,0 2.7289,-0.1811 4.2421,-0.6854 4.1903,-1.2675 6.6993,-3.7894 7.4753,-7.5659 0.776,-3.7894 0.052,-9.454 -2.328,-17.0199 -2.2245,-7.3071 -4.7335,-12.2734 -7.527,-14.9247 z"
       style="fill:#00070d;fill-rule:evenodd"
       id="path2117" />
    <path
       d="m 3739.7587,3620.7341 c -8.8979,-35.9539 -18.5718,-71.7267 -27.1982,-107.7193 -0.5043,7.6176 -0.4526,15.2739 -0.7242,22.8915 -0.8665,-0.8665 -2.509,-2.6384 -3.3755,-3.5566 -5.613,-15.3774 -8.7686,-31.6084 -15.067,-46.7659 -0.9053,18.3908 -0.1811,36.8204 -0.4527,55.2112 -1.0088,-0.4139 -3.0522,-1.2287 -4.061,-1.6037 -7.8503,-22.7105 -11.2258,-46.947 -18.8434,-69.7997 -0.5949,27.237 0,54.5257 -0.2716,81.7627 -3.2333,-0.181 -5.1991,-1.6942 -5.8845,-4.5653 -10.2171,-40.9719 -20.2532,-82.0731 -30.7548,-122.9545 -1.0476,12.5839 -0.3621,25.2712 -0.5044,37.9068 -0.039,96.9073 0.1423,193.8146 -0.09,290.7736 27.6508,-0.091 55.2499,-0.052 82.9008,-0.052 -2.7289,-12.7778 -7.0227,-25.1806 -9.2083,-38.0878 5.3801,-0.3233 6.0138,4.643 7.1649,8.704 7.2037,0.181 14.4591,0.2328 21.7145,0.2328 -1.7847,-6.0656 -3.5178,-12.183 -5.1602,-18.2486 5.5224,0.091 11.0448,0.1294 16.5672,0.1811 -0.5044,-4.7464 -1.0476,-9.4411 -1.552,-14.1487 4.4619,-0.039 8.9367,-0.091 13.4504,-0.1811 -7.6176,-22.9044 -11.989,-46.8047 -18.6495,-69.9807 z"
       style="fill:#00070d;fill-rule:evenodd"
       id="path2119" />
    <path
       d="m 3897.8522,3466.5981 c -3.1039,6.6605 -8.8074,12.5063 -17.1104,17.5243 -8.3418,5.0568 -16.1533,7.3847 -23.4476,7.0226 -7.3071,-0.3621 -13.1399,-4.1515 -17.5243,-11.4069 -4.3325,-7.2037 -4.9662,-14.1488 -1.8623,-20.8093 3.091,-6.6605 8.7557,-12.4933 17.0587,-17.5113 8.3935,-5.0181 16.1921,-7.3977 23.4993,-7.0356 7.2943,0.375 13.14,4.1644 17.5114,11.4069 4.3455,7.2167 4.9792,14.1488 1.8752,20.8093 z m -70.9894,265.0368 c -35.6306,0.039 -71.2223,0.3234 -106.8528,0.1811 0.09,6.4277 0.181,12.8167 0.2198,19.2961 32.1257,0.9183 64.2514,0 96.3641,0.8665 -29.0605,55.3017 -78.9303,99.5586 -137.8274,120.5877 -38.0102,14.2781 -79.4865,17.201 -119.5401,12.0924 -78.1156,-11.4069 -149.5577,-62.4149 -185.0589,-132.9517 26.5127,-0.6337 53.0643,0.2716 79.577,-0.6337 3.0522,-6.0656 5.6129,-12.364 7.6564,-18.8046 -32.5267,0 -65.0533,0.181 -97.5928,0 -28.194,-67.8856 -28.4139,-147.4109 2.1986,-214.4816 27.3275,-61.2768 79.2537,-111.5475 142.2118,-135.0468 43.7524,-16.9682 92.3936,-19.9816 138.1895,-10.7215 55.1207,11.9113 105.857,43.0282 141.3582,86.7807 27.0559,32.6688 45.6666,72.0888 54.4222,113.5521 10.5922,53.116 5.3414,109.1807 -15.3256,159.2833 z m 9.4411,146.9582 -11.4975,-7.2554 -13.6831,12.2217 5.794,12.364 -9.5834,8.5875 -25.9178,-58.7677 10.4499,-9.3506 55.4827,32.2938 z m -43.067,35.1779 -35.6306,-17.8864 c -1.3321,-0.6855 -2.5995,-1.3709 -3.7506,-2.1469 -1.1381,-0.7242 -1.914,-1.2286 -2.3667,-1.5002 0.5044,0.6854 1.0476,1.4614 1.6425,2.3667 0.6337,0.9183 1.3192,1.9658 2.0951,3.1557 l 18.3391,28.6079 -10.1654,6.5182 -32.3067,-50.3742 3.3755,7.2555 -15.2351,7.0355 6.4794,14.0971 13.3211,-6.1174 3.9187,8.5358 -13.321,6.1044 7.0226,15.2481 15.2481,-7.0356 4.0609,8.8074 -28.388,13.1012 -25.5428,-55.4828 28.3751,-13.1011 0.1811,0.4138 10.5404,-6.751 32.6689,16.2439 c 1.6942,0.8665 2.9617,1.5519 3.8799,2.0951 0.9053,0.5044 1.552,0.9183 1.9141,1.1899 -0.4527,-0.6338 -0.957,-1.3192 -1.552,-2.1469 -0.5432,-0.8148 -1.1898,-1.7719 -1.9141,-2.9229 l -16.787,-26.1894 10.2559,-6.5183 32.9922,51.3701 z m -81.5299,33.7164 c -2.3797,6.7511 -8.0315,11.4975 -16.9811,14.2781 -3.867,1.1381 -7.2943,1.9141 -10.3077,2.1857 -2.9616,0.3233 -5.7422,0.2328 -8.303,-0.2199 l -16.3732,-53.297 c 1.9141,-1.7719 4.1903,-3.3756 6.7898,-4.837 2.5608,-1.4097 5.613,-2.6901 9.0402,-3.7376 9.079,-2.7806 16.5543,-2.1469 22.4389,1.9658 5.8845,4.061 10.23,10.6309 13.0494,19.7487 2.7935,9.1696 3.0134,17.1622 0.6467,23.9132 z m -54.7973,22.4906 -5.5742,-12.364 -18.158,2.5995 -2.0434,13.4633 -12.739,1.8236 11.0448,-63.2814 13.8771,-2.0046 28.2329,57.6684 z m -56.3493,5.6647 -1.733,-35.2296 c -0.052,-1.5003 -0.091,-2.8712 -0.091,-4.1516 0.039,-1.2803 0.039,-2.3667 0.091,-3.3237 -0.2716,0.8665 -0.5044,1.6813 -0.6855,2.4572 -0.2328,0.776 -0.776,2.4702 -1.6813,5.1086 -0.8665,2.5995 -2.0563,6.1173 -3.479,10.5404 -1.4485,4.3843 -3.0004,9.1307 -4.6429,14.1876 -1.6943,5.1085 -2.8324,8.3935 -3.3756,9.8549 l -7.2166,-0.2716 c -0.3233,-1.0087 -1.0476,-3.7893 -2.1857,-8.303 -1.1381,-4.5136 -2.3797,-9.4411 -3.6988,-14.7824 -1.3709,-5.3802 -2.328,-9.1696 -2.8712,-11.4975 -0.5949,-2.2762 -1.0087,-4.1515 -1.2803,-5.5612 -0.2716,-1.3709 -0.4527,-2.3797 -0.5432,-2.8841 -0.052,0.8665 -0.091,1.7848 -0.1423,2.7936 -0.091,0.957 -0.2199,2.509 -0.5044,4.6429 l -4.3713,34.9968 -11.9114,-0.4138 8.7169,-60.8112 14.0453,0.5044 8.2125,34.5312 c 0.375,1.3709 0.6466,2.7418 0.8665,4.1127 0.2328,1.3709 0.375,2.2762 0.5044,2.7806 0.2328,-0.776 0.5431,-1.733 0.8665,-2.8711 0.3621,-1.151 0.776,-2.4702 1.2286,-3.9317 l 11.2776,-33.7552 13.9548,0.5044 4.2938,61.2638 z m -55.7026,-3.6601 -29.3839,-5.7035 11.6268,-59.9446 14.1488,2.7289 -9.8162,50.4647 15.248,2.9746 z m -34.1303,-6.0139 -14.0582,-4.7076 0.5561,-13.5409 -17.4338,-5.8069 -7.7986,11.1353 -12.2346,-4.0609 38.1524,-51.6934 13.3211,4.436 z m -65.9715,-24.6374 -2.1469,-39.795 c -0.052,-1.5519 -0.052,-2.9616 0,-4.3325 0.091,-1.3709 0.1294,-2.2763 0.1294,-2.8194 -0.3104,0.7759 -0.7243,1.6425 -1.2287,2.5995 -0.4526,0.9958 -1.0475,2.0952 -1.6813,3.3755 l -15.7912,30.1081 -10.6698,-5.6129 27.8319,-53.1548 -4.7464,6.6605 -13.6443,-9.7644 -9.0402,12.6485 11.9113,8.4841 -5.4707,7.6563 -11.9113,-8.5229 -9.7645,13.6832 13.6444,9.7645 -5.613,7.8503 -25.4134,-18.158 35.5012,-49.6887 25.4523,18.158 -0.2716,0.3621 11.0836,5.8457 2.0563,36.4453 c 0.1423,1.8365 0.1423,3.285 0.1423,4.3455 -0.052,1.0864 -0.052,1.8236 -0.1035,2.2763 0.3234,-0.7243 0.6855,-1.5003 1.0993,-2.3668 0.4527,-0.9182 0.9571,-1.927 1.6037,-3.1557 l 14.4074,-27.5085 10.7733,5.6517 -28.3363,54.1119 z m -72.0888,-50.6458 c -5.1602,-0.776 -10.5921,-3.8411 -16.2956,-9.1307 -6.1561,-5.7423 -10.1266,-11.0319 -11.8596,-15.9206 l 38.0102,-40.7908 c 2.328,0.6466 4.8758,1.8235 7.6564,3.6083 2.8323,1.733 5.6647,3.9704 8.5358,6.6088 5.6129,5.2508 8.8591,10.3594 9.7256,15.2868 0.8666,4.9275 -0.3233,9.1308 -3.6083,12.6356 -2.4702,2.6513 -5.2896,4.061 -8.5358,4.2938 -3.1944,0.1811 -6.0656,-0.4139 -8.6651,-1.8753 1.6813,2.8841 2.5995,6.2079 2.6512,9.9972 0.091,3.7894 -1.1898,7.1132 -3.8411,9.9068 -4.0092,4.3325 -8.6263,6.1044 -13.7737,5.3801 z m -84.7761,-426.8292 c 0.2328,-2.5995 0.9183,-5.5095 2.0952,-8.6651 1.1898,-3.1428 2.7935,-6.4278 4.837,-9.8033 4.3843,-7.1649 9.2212,-11.4975 14.472,-12.9589 5.2896,-1.4614 10.5405,-0.5949 15.7395,2.5995 5.1086,3.1428 8.3419,7.346 9.7128,12.5968 1.3321,5.2896 0,11.213 -4.061,17.783 -0.4009,0.6854 -0.8148,1.3321 -1.2287,1.927 -0.4138,0.582 -0.7759,1.0864 -1.1381,1.5002 l -1.0993,1.733 20.4472,12.4546 -7.6693,12.5967 z m 36.2255,-58.3927 34.1303,29.0606 c 2.0952,1.7847 4.1515,2.5995 6.2079,2.4702 2.0563,-0.091 3.7893,-1.0605 5.2896,-2.7936 1.4614,-1.733 2.0951,-3.5954 1.9141,-5.6129 -0.1811,-2.0046 -1.3709,-3.9187 -3.5566,-5.7423 l -34.0786,-29.0605 9.0273,-10.5922 34.2208,29.2028 c 4.5654,3.8799 6.8933,8.5358 6.9838,14.0065 0.091,5.4707 -2.0046,10.7215 -6.2466,15.7007 -4.2032,4.9275 -9.0402,7.8374 -14.4204,8.6652 -5.4318,0.8147 -10.4499,-0.7243 -15.054,-4.6559 l -34.2208,-29.1511 z m 51.965,-52.0167 6.7122,7.5788 -13.14,11.6268 10.7733,12.1441 11.4457,-10.1783 6.5183,7.3977 -11.4458,10.1266 11.6398,13.0882 13.0882,-11.588 6.7122,7.527 -24.4175,21.6758 -42.2911,-47.7229 z m 14.6919,-10.8508 c 2.328,-2.328 5.1086,-4.5654 8.303,-6.7123 6.9839,-4.6559 13.2305,-6.7122 18.6624,-6.1173 5.4319,0.5561 9.9067,3.4661 13.3728,8.7169 2.3279,3.466 3.1427,7.2037 2.4572,11.2259 -0.6337,4.0609 -2.5478,7.527 -5.7034,10.4499 l 29.94,14.3686 -13.7349,9.1307 -28.1941,-15.067 15.468,23.5511 -12.3252,8.2125 -33.8587,-50.7364 c 1.3709,-2.3279 3.2462,-4.6559 5.6129,-7.0226 z m 69.541,-39.2389 4.3713,9.1178 -9.9455,4.7982 23.3183,48.3566 -13.6444,6.5312 -23.2665,-48.3696 -10.036,4.837 -4.3843,-9.1178 z m 14.8212,2.8712 c 2.0952,-6.9839 7.1649,-11.7691 15.2352,-14.2781 8.0314,-2.509 14.9247,-1.4614 20.6799,3.1039 5.7423,4.6042 10.036,11.4975 12.946,20.7576 2.9228,9.3505 3.3367,17.4725 1.2415,24.4951 -2.108,6.9839 -7.1649,11.7691 -15.248,14.2781 -8.0185,2.509 -14.9118,1.4615 -20.667,-3.091 -5.7035,-4.6171 -10.0361,-11.4975 -12.9589,-20.7704 -2.8712,-9.3506 -3.285,-17.4726 -1.2287,-24.4952 z m 79.1632,-27.1982 c 2.9617,-0.8665 6.3372,-1.4097 10.0878,-1.733 9.8549,-0.7243 17.3302,1.6424 22.4,7.1649 5.0568,5.4836 7.9409,13.2305 8.7039,23.1372 0.7372,9.9843 -0.8665,18.158 -4.824,24.4952 -4.0222,6.3501 -10.8637,9.8549 -20.5765,10.5921 -4.2032,0.3104 -7.8503,0.3104 -11.006,-0.09 -3.1427,-0.3751 -5.9233,-1.0993 -8.4323,-2.1469 l -4.3843,-58.0435 c 2.3667,-1.358 5.0697,-2.4573 8.0314,-3.3755 z m 48.7317,-2.3668 32.5654,2.1469 -0.6337,10.0749 -17.5243,-1.1381 -1.0476,16.2051 15.2869,0.957 -0.6337,9.8032 -15.2869,-0.957 -1.1381,17.4725 17.5113,1.1381 -0.6854,10.0878 -32.5266,-2.1469 z m 50.3613,4.9275 c 3.3755,0 7.0355,0.4139 10.9025,1.1899 8.2125,1.6813 13.916,4.7464 17.0716,9.2083 3.1945,4.4231 4.1515,9.6739 2.9229,15.649 -1.1898,5.8845 -4.0222,10.3593 -8.5358,13.4115 -4.4748,3.0652 -10.5404,3.8412 -18.1192,2.2892 -0.776,-0.1423 -1.5002,-0.3233 -2.1857,-0.5044 -0.6854,-0.1811 -1.2803,-0.4139 -1.8235,-0.5949 l -2.0047,-0.4139 -4.7464,23.4606 -14.4721,-2.9229 12.1442,-59.8153 c 2.5478,-0.6855 5.5224,-1.0088 8.8462,-0.9571 z m 45.4855,18.934 c 5.9362,-4.2032 12.8684,-4.837 20.8092,-1.8236 7.8504,2.9617 12.6356,8.0315 14.3299,15.1964 1.6813,7.1519 0.7759,15.2351 -2.6513,24.3141 -3.4661,9.1178 -8.1608,15.83 -14.1358,20.0333 -5.9363,4.242 -12.9201,4.8369 -20.8093,1.8235 -7.8504,-2.9746 -12.6356,-8.0314 -14.3298,-15.1963 -1.6813,-7.1649 -0.776,-15.2351 2.6513,-24.3141 3.466,-9.1307 8.1607,-15.8301 14.1358,-20.0333 z m 61.1474,17.3432 c 3.1945,1.0476 6.3889,2.5478 9.7127,4.5136 7.2555,4.1903 11.8208,8.898 13.7349,14.0065 1.8753,5.1474 1.2287,10.4499 -1.9658,15.8689 -2.0564,3.5695 -5.0568,5.988 -8.9885,7.1649 -3.9187,1.1898 -7.8891,1.0088 -11.8984,-0.5432 l 0.3104,33.212 -14.2781,-8.303 1.1381,-31.9317 -14.3298,24.2236 -12.8166,-7.4365 30.6642,-52.7409 c 2.6384,0.2198 5.5612,0.8665 8.7169,1.9658 z m 36.6264,22.1284 29.3451,23.0338 -6.2467,7.9409 -8.6781,-6.8028 -33.1603,42.2005 -11.8725,-9.3506 33.1215,-42.2005 -8.7557,-6.8416 z m 44.994,38.1396 -43.8947,46.2615 -10.9026,-10.3077 43.8948,-46.2744 z m 14.5109,15.2351 -22.5035,30.7548 c -0.8665,1.1769 -1.7718,2.3667 -2.8194,3.5566 -1.0088,1.1898 -1.733,2.0563 -2.1986,2.5995 1.0088,-0.5949 2.0564,-1.1898 3.2462,-1.8753 1.1381,-0.6854 2.4185,-1.3191 3.7376,-1.9529 l 34.2209,-16.9811 9.3506,11.0449 -61.044,26.6032 -8.4841,-9.9972 36.2255,-55.9354 z m 35.0356,-6.4277 c -48.1756,-59.3627 -114.341,-104.1239 -187.8783,-125.3859 -46.1321,-13.7737 -94.8639,-18.4295 -142.8066,-14.0452 -92.2514,8.0314 -180.9074,51.37 -243.7362,119.4366 -42.7049,45.2657 -73.77,101.3821 -89.6906,161.5596 -28.1553,102.8823 -9.9455,217.3139 48.68,306.4226 45.1621,69.3081 113.2417,123.601 191.3961,151.0579 89.1992,32.2162 190.2967,29.2028 277.4008,-8.303 58.3927,-24.7668 110.3576,-64.4583 149.5965,-114.3281 40.1571,-50.4647 66.9414,-111.3794 77.1973,-175.0229 18.0287,-105.7535 -12.1312,-218.4908 -80.159,-301.3916 z"
       style="fill:#00070d;fill-rule:evenodd"
       id="path2121" />
    <path
       d="m 3878.1811,3447.7288 c -4.3455,0.957 -9.273,3.1427 -14.8342,6.5182 -5.6518,3.3885 -9.9067,6.764 -12.7261,10.0878 -2.8324,3.285 -3.285,6.5312 -1.3709,9.6739 1.9141,3.1945 4.9663,4.2938 9.2212,3.3368 4.2421,-1.0088 9.2084,-3.1945 14.873,-6.6218 5.6518,-3.4272 9.8938,-6.8027 12.7261,-10.1265 2.8324,-3.3368 3.285,-6.5312 1.4097,-9.6739 -1.8623,-3.104 -4.9662,-4.2033 -9.2988,-3.1945 z"
       style="fill:#00070d;fill-rule:evenodd"
       id="path2123" />
  </g>
</svg>
